<?xml version="1.0" encoding="utf-8"?>
<!-- Generator: Adobe Illustrator 19.1.0, SVG Export Plug-In . SVG Version: 6.00 Build 0)  -->
<svg version="1.1" id="Layer_1" xmlns="http://www.w3.org/2000/svg" xmlns:xlink="http://www.w3.org/1999/xlink" x="0px" y="0px"
	 viewBox="0 0 25.1 25.2" style="enable-background:new 0 0 25.1 25.2;" xml:space="preserve">
<style type="text/css">
	.st0{fill:#FAA819;stroke:#727273;stroke-miterlimit:10;}
	.st1{clip-path:url(#SVGID_2_);}
	.st2{fill:#757575;}
</style>
<path class="st0" d="M18.9,24.7l-12.7,0c-3.1,0-5.7-2.6-5.7-5.7l0-12.7c0-3.1,2.6-5.7,5.7-5.7l12.7,0c3.1,0,5.7,2.6,5.7,5.7l0,12.7
	C24.5,22.1,22,24.7,18.9,24.7z"/>
<g>
	<defs>
		<rect id="SVGID_1_" x="8.5" y="2.3" width="8.2" height="19.6"/>
	</defs>
	<clipPath id="SVGID_2_">
		<use xlink:href="#SVGID_1_"  style="overflow:visible;"/>
	</clipPath>
	<g class="st1">
		<path class="st2" d="M9.4,3.2c2.2,0,4.5,0,6.8-0.1c-0.5,4.1-0.9,8.1-1.4,12.2c-1.3,0-2.6,0-3.9,0C10.6,11.2,10,7.2,9.4,3.2z"/>
		<path class="st2" d="M10.1,21.4c0.2-1.4,0.4-2.8,0.6-4.2c1.5,0,2.9,0,4.4,0c0.1,1.4,0.3,2.8,0.4,4.2C13.7,21.4,12,21.4,10.1,21.4z
			"/>
		<path class="st2" d="M5.2,24.4c-0.2,0-0.2-0.3-0.3-0.4c0,0.1,0,0.2,0,0.4c0,0,0,0-0.1,0c0-0.2,0-0.4,0-0.6c0.2,0,0.2,0.3,0.3,0.4
			c0.1-0.1,0-0.3,0.1-0.4C5.2,24,5.2,24.2,5.2,24.4z"/>
		<path class="st2" d="M4.3,24.4c0-0.1,0-0.1,0-0.2c0-0.1,0-0.1-0.1-0.1c0,0-0.1,0.1-0.1,0.1c0,0.1,0,0.1,0,0.2c0,0-0.1,0-0.1,0
			c0-0.1,0-0.2,0-0.2c0,0,0-0.1-0.1-0.1c0,0-0.1,0.1-0.1,0.1c0,0.1,0,0.1,0,0.2c0,0,0,0.1-0.1,0.1c0-0.1,0-0.3,0-0.4
			c0.1,0,0.3,0,0.5,0c0.1,0,0.1,0.1,0.2,0.1C4.4,24.2,4.4,24.3,4.3,24.4C4.4,24.4,4.3,24.4,4.3,24.4z"/>
		<path class="st2" d="M9.1,23.5c0-0.1,0-0.1,0-0.2c0-0.1,0-0.3,0-0.4c0.2,0,0.4-0.1,0.5,0.1c0,0.1,0.1,0.2,0,0.3
			C9.5,23.6,9.3,23.5,9.1,23.5z M9.2,23.5c0.1-0.1,0.2-0.1,0.3-0.2c0-0.1,0-0.2,0-0.2C9.4,23,9.3,23,9.2,23
			C9.2,23.2,9.2,23.3,9.2,23.5z"/>
		<path class="st2" d="M4.4,23.5c-0.1,0-0.2,0-0.3,0c-0.1,0-0.1-0.1-0.1-0.1c0,0,0.1-0.1,0.1-0.1c0,0,0.1,0,0.2,0c0,0,0,0,0-0.1
			c-0.1,0-0.2,0-0.3,0c0-0.1,0.2-0.1,0.3-0.1c0.1,0,0.1,0.1,0.1,0.2C4.4,23.3,4.4,23.4,4.4,23.5z"/>
		<path class="st2" d="M3.2,23.2c-0.2,0-0.3-0.3-0.4,0c-0.1,0.2,0,0.4,0.2,0.3c0.1,0,0.1-0.1,0.2-0.2c0,0.2-0.1,0.2-0.2,0.3
			c-0.2,0-0.3-0.1-0.3-0.2c0-0.2,0.1-0.3,0.2-0.3C3,22.9,3.1,23,3.2,23.2z"/>
		<path class="st2" d="M7.8,23.3c0,0.2-0.1,0.2-0.2,0.3c-0.2,0-0.3-0.1-0.3-0.2c0-0.2,0.1-0.3,0.2-0.3c0.2,0,0.3,0,0.4,0.2
			c-0.1,0-0.1,0-0.1-0.1c-0.1-0.1-0.2-0.1-0.3,0c-0.1,0.1-0.1,0.2,0,0.3c0.1,0.1,0.2,0.1,0.3,0C7.7,23.3,7.8,23.3,7.8,23.3z"/>
		<path class="st2" d="M5.8,23c0,0.2,0,0.4,0,0.6c0,0-0.1,0-0.1,0c-0.1,0-0.2,0-0.2-0.1c0-0.1,0-0.2,0-0.3c0-0.1,0.2-0.1,0.3-0.1
			c0,0,0,0,0,0C5.7,23.1,5.7,23,5.8,23C5.7,23,5.7,23,5.8,23z M5.7,23.3c-0.1-0.1-0.1-0.1-0.2-0.1c0,0-0.1,0.1-0.1,0.1
			c0,0.1,0.1,0.1,0.1,0.1C5.6,23.4,5.6,23.4,5.7,23.3z"/>
		<path class="st2" d="M6.1,23.5c0-0.2,0-0.4,0-0.6c0,0,0,0,0,0c0,0.1,0,0.1,0.1,0.2c0.2,0,0.3,0,0.3,0.2c0,0.1-0.1,0.2-0.1,0.2
			C6.3,23.6,6.2,23.5,6.1,23.5z M6.3,23.5c0.1-0.1,0.1-0.2,0.1-0.2c0-0.1-0.1-0.1-0.1-0.1c0,0-0.1,0.1-0.1,0.1
			C6.2,23.4,6.3,23.4,6.3,23.5z"/>
		<path class="st2" d="M10.3,22.9c0,0.1,0,0.1,0.1,0.2c0.2,0,0.3,0,0.3,0.2c0,0.2-0.1,0.2-0.4,0.2C10.2,23.3,10.2,23.1,10.3,22.9
			C10.2,23,10.3,23,10.3,22.9z M10.5,23.1C10.4,23.2,10.4,23.2,10.5,23.1c-0.1,0.1-0.1,0.1-0.1,0.2c0,0.1,0.1,0.1,0.1,0.1
			c0-0.1,0.1-0.1,0.1-0.2C10.6,23.3,10.5,23.2,10.5,23.1z"/>
		<path class="st2" d="M10.8,23.5c0-0.2,0-0.4,0-0.6c0,0,0,0,0,0c0,0.1,0,0.1,0.1,0.2c0.2,0,0.3,0,0.3,0.2c0,0.1,0,0.2-0.1,0.2
			C11,23.5,10.9,23.5,10.8,23.5z M11.1,23.3c-0.1-0.1-0.1-0.1-0.2-0.1c0,0-0.1,0.1-0.1,0.1c0,0,0.1,0.1,0.1,0.1
			C11,23.4,11.1,23.4,11.1,23.3z"/>
		<path class="st2" d="M7.2,24.2c-0.1,0.1,0,0.2-0.1,0.2c0,0,0-0.1,0-0.1c0-0.2,0-0.3,0-0.5c0.3-0.1,0.4,0,0.5,0.1
			C7.5,24.1,7.4,24.2,7.2,24.2z M7.1,24.1c0.1,0,0.2-0.1,0.3-0.1c0,0,0-0.1,0-0.1c-0.1,0-0.2,0-0.2-0.1C7.1,24,7.1,24,7.1,24.1z"/>
		<path class="st2" d="M5.3,23.3c-0.1,0-0.2,0-0.3,0C5,23.6,5.2,23.4,5.3,23.3c-0.1,0.2-0.2,0.2-0.3,0.2c-0.1,0-0.1-0.1-0.1-0.2
			c0-0.1,0.1-0.2,0.2-0.2C5.2,23.1,5.3,23.2,5.3,23.3z"/>
		<path class="st2" d="M3.9,23.4c-0.1,0.1-0.2,0.1-0.3,0.1c-0.1,0-0.1-0.1-0.1-0.2c0-0.1,0.1-0.2,0.2-0.2
			C3.9,23.1,3.9,23.2,3.9,23.4c-0.1-0.1-0.2-0.1-0.3-0.1C3.7,23.4,3.7,23.4,3.9,23.4z"/>
		<path class="st2" d="M8.7,24.2c0.1,0.1,0.1,0.1,0.3,0.1c-0.1,0.1-0.1,0.2-0.3,0.1c-0.1,0-0.2-0.1-0.1-0.3C8.6,24,8.7,24,8.8,24
			C8.9,24,9,24.1,9,24.2C8.9,24.2,8.8,24.2,8.7,24.2z"/>
		<path class="st2" d="M6.6,23.7c0.1-0.2,0.1-0.2,0-0.6c0.1,0,0.1,0,0.2,0.3c0-0.1,0.1-0.2,0.1-0.3c0,0,0,0,0.1,0
			c-0.1,0.2-0.1,0.3-0.2,0.5C6.8,23.7,6.7,23.7,6.6,23.7z"/>
		<path class="st2" d="M8.3,24.2c0,0.1-0.1,0.2-0.2,0.2c-0.1,0-0.2-0.1-0.2-0.2c0-0.1,0.1-0.2,0.2-0.2C8.2,24,8.3,24.1,8.3,24.2z
			 M8.2,24.2c-0.1-0.1-0.1-0.1-0.2-0.1c0,0-0.1,0.1-0.1,0.1c0,0.1,0.1,0.1,0.1,0.1C8.1,24.3,8.2,24.2,8.2,24.2z"/>
		<path class="st2" d="M10.1,23.3c0,0.1-0.1,0.2-0.2,0.2c-0.1,0-0.2-0.1-0.2-0.2c0-0.1,0.1-0.2,0.2-0.2C10,23.1,10.1,23.2,10.1,23.3
			z M9.9,23.5c0.1-0.1,0.1-0.2,0.1-0.2c0-0.1-0.1-0.1-0.1-0.1c0,0-0.1,0.1-0.1,0.2C9.8,23.4,9.8,23.4,9.9,23.5z"/>
		<path class="st2" d="M5.7,24.2c0,0.1-0.1,0.2-0.2,0.2c-0.1,0-0.2-0.1-0.2-0.2c0-0.1,0.1-0.2,0.2-0.2C5.7,24,5.7,24.1,5.7,24.2z
			 M5.5,24c-0.1,0.1-0.1,0.2-0.1,0.2c0,0.1,0.1,0.1,0.1,0.1c0-0.1,0.1-0.1,0.1-0.2C5.6,24.1,5.6,24.1,5.5,24z"/>
		<path class="st2" d="M3.4,24c0.1,0,0.2,0.1,0.2,0.2c0,0.1-0.1,0.2-0.2,0.2c-0.1,0-0.2-0.1-0.2-0.2C3.2,24.1,3.3,24,3.4,24z
			 M3.6,24.2c-0.1-0.1-0.1-0.1-0.2-0.1c0,0-0.1,0.1-0.1,0.1c0,0.1,0.1,0.1,0.1,0.1C3.5,24.3,3.5,24.3,3.6,24.2z"/>
		<path class="st2" d="M12.3,23.2c-0.1,0-0.1,0-0.2,0c0,0,0,0,0,0.1C12.1,23.2,12.2,23.3,12.3,23.2c0,0.1,0,0.1,0,0.2
			c0,0-0.1,0.1-0.1,0.1c-0.1,0-0.2,0-0.3-0.1c0.1,0,0.2,0,0.3,0.1c0,0,0,0,0-0.1c0,0-0.1,0-0.1-0.1c-0.1,0-0.1-0.1-0.1-0.1
			c0.1,0,0.1-0.1,0.2-0.1C12.2,23.1,12.3,23.1,12.3,23.2C12.3,23.2,12.3,23.2,12.3,23.2z"/>
		<path class="st2" d="M8.7,23.2c-0.1,0-0.1,0-0.2,0c0,0,0,0,0,0C8.5,23.2,8.6,23.2,8.7,23.2c0,0.1,0,0.1,0,0.2
			c-0.1,0-0.1,0.1-0.2,0.1c-0.1,0-0.1,0-0.2-0.1c0,0,0,0,0-0.1c0.1,0,0.2,0,0.3,0c0,0,0,0,0-0.1c0,0-0.1,0-0.1-0.1
			c-0.1,0-0.1-0.1-0.1-0.1c0.1,0,0.1-0.1,0.2-0.1C8.6,23.1,8.7,23.1,8.7,23.2C8.7,23.2,8.7,23.2,8.7,23.2z"/>
		<path class="st2" d="M11.5,23.5c0-0.1,0-0.3,0-0.4c0.1,0,0.3,0,0.3,0.1c0.1,0.1,0,0.2,0,0.4c0,0,0,0,0,0c0,0,0,0-0.1-0.1
			c0-0.1,0-0.1,0-0.2c0,0,0-0.1-0.1-0.1c0,0-0.1,0.1-0.1,0.1C11.6,23.3,11.6,23.4,11.5,23.5C11.6,23.5,11.5,23.5,11.5,23.5
			C11.5,23.5,11.5,23.5,11.5,23.5z"/>
		<path class="st2" d="M6.3,24c0.1,0,0.3,0,0.3,0.1c0.1,0.1,0,0.2,0,0.4c0,0-0.1,0-0.1,0.1c0,0,0-0.1,0-0.1c0-0.1,0-0.2-0.1-0.3
			c-0.2,0.1-0.1,0.2-0.1,0.3c0,0,0,0.1,0,0.1c0,0,0,0-0.1,0C6.3,24.3,6.3,24.1,6.3,24z"/>
		<path class="st2" d="M5.8,23.9C5.9,24,5.9,24,5.8,23.9c0.1,0.1,0.1,0.2,0.1,0.3c0,0,0,0.1,0.1,0.1c0,0,0.1-0.1,0.1-0.1
			c0-0.1,0-0.1,0-0.2c0,0,0-0.1,0.1-0.1c0,0.1,0,0.3,0,0.4C5.8,24.4,5.8,24.3,5.8,23.9z"/>
		<path class="st2" d="M9.4,24.2c0,0.2-0.1,0.2-0.2,0.2c-0.1,0-0.2-0.1-0.2-0.2C9,24.1,9.1,24,9.2,24c0.1,0,0.2,0,0.2,0.1
			c-0.1,0-0.2,0-0.3,0c-0.1,0.1,0,0.2,0.1,0.2c0,0,0.1,0,0.1-0.1C9.4,24.3,9.4,24.3,9.4,24.2z"/>
		<path class="st2" d="M4.8,23.1c-0.1,0.1-0.1,0.2,0,0.4c-0.2,0-0.2,0-0.2-0.1c0-0.1-0.1-0.2,0-0.2c0-0.1,0.1-0.1,0.1-0.2
			C4.7,23,4.7,23.1,4.8,23.1z"/>
		<path class="st2" d="M9.8,24c-0.1,0.1-0.1,0.2,0,0.4c-0.2,0-0.2,0-0.2-0.1c0-0.1-0.1-0.2-0.1-0.2c0-0.1,0.1-0.1,0.1-0.2
			C9.7,23.9,9.7,23.9,9.8,24z"/>
		<path class="st2" d="M2.9,23.8c0,0.2-0.1,0.4-0.1,0.6c0,0,0,0,0,0c0-0.1,0-0.3-0.1-0.4C2.7,23.9,2.7,23.8,2.9,23.8z"/>
		<path class="st2" d="M8.4,24c0.1,0,0.1,0.3,0.1,0.5c0,0-0.1,0.1-0.1,0.1C8.4,24.4,8.4,24.2,8.4,24z"/>
		<path class="st2" d="M7.6,24.4c0-0.2,0-0.3,0-0.4c0.1,0,0.2,0,0.2,0c-0.1,0.1-0.1,0.1-0.1,0.2C7.6,24.3,7.7,24.4,7.6,24.4z"/>
		<path class="st2" d="M3.3,23.5c0-0.1,0-0.3,0-0.4c0.1,0,0.2,0,0.2,0C3.3,23.2,3.4,23.4,3.3,23.5C3.3,23.5,3.3,23.5,3.3,23.5z"/>
		<path class="st2" d="M3,24.4c0-0.2,0-0.3,0-0.4c0.1,0,0.2,0,0.2,0c0,0.1-0.1,0.1-0.1,0.2C3,24.3,3.1,24.4,3,24.4z"/>
		<path class="st2" d="M7.9,23.1c0.1,0,0.2,0,0.2,0C8.1,23.2,8,23.2,8,23.3c0,0.1,0,0.2-0.1,0.2C7.9,23.4,7.9,23.2,7.9,23.1z"/>
		<path class="st2" d="M11.3,23.1c0.1,0.1,0.1,0.4,0,0.4C11.3,23.4,11.3,23.2,11.3,23.1z"/>
		<path class="st2" d="M8.2,23.1c0.1,0.1,0.1,0.3,0,0.4C8.2,23.4,8.2,23.2,8.2,23.1z"/>
	</g>
</g>
</svg>
