<?xml version="1.0" encoding="utf-8"?>
<!-- Generator: Adobe Illustrator 19.1.0, SVG Export Plug-In . SVG Version: 6.00 Build 0)  -->
<svg version="1.1" id="Layer_1" xmlns="http://www.w3.org/2000/svg" xmlns:xlink="http://www.w3.org/1999/xlink" x="0px" y="0px"
	 viewBox="0 0 25.4 25.2" style="enable-background:new 0 0 25.4 25.2;" xml:space="preserve">
<style type="text/css">
	.st0{fill:#545554;stroke:#727373;stroke-miterlimit:10;}
	.st1{clip-path:url(#SVGID_2_);}
	.st2{fill:#FFFFFF;}
</style>
<path class="st0" d="M19,24.7H6.3c-3.1,0-5.7-2.6-5.7-5.7l0-12.7c0-3.1,2.6-5.7,5.7-5.7l12.7,0c3.1,0,5.7,2.6,5.7,5.7l0,12.7
	C24.6,22.1,22.1,24.7,19,24.7z"/>
<g>
	<defs>
		<rect id="SVGID_1_" x="3.9" y="0.7" width="16.6" height="22.7"/>
	</defs>
	<clipPath id="SVGID_2_">
		<use xlink:href="#SVGID_1_"  style="overflow:visible;"/>
	</clipPath>
	<g class="st1">
		<path class="st2" d="M14.6,16.9c-1.2,0-2.5,0-3.7,0c0-0.1,0-0.2,0-0.3c0.1-0.7,0.1-1.5,0.2-2.2c0.1-0.7,0.5-1.3,1-1.8
			c0.6-0.5,1.2-1,1.8-1.5c0.4-0.3,0.8-0.6,1.1-1c0.8-1.1,0.7-2.7-0.1-3.7c-0.3-0.4-0.7-0.6-1.2-0.6c-0.7-0.1-1.4-0.2-2.1,0.1
			c-0.6,0.2-1.1,0.6-1.3,1.3c-0.1,0.3,0,0.7,0,1c0,0.2,0.1,0.4,0.1,0.7c-1.5,0-3,0-4.6,0c0-0.3,0.1-0.6,0.1-0.9c0.1-1,0.4-2,1-2.9
			c0.8-1.3,2-2.1,3.5-2.4c2.2-0.5,4.4-0.3,6.5,0.7c1.1,0.5,1.9,1.3,2.4,2.4c0.4,1,0.5,2,0.5,3c-0.1,1.6-0.9,2.7-2.1,3.7
			c-0.6,0.5-1.2,1-1.8,1.4c-0.7,0.6-1.1,1.3-1.2,2.2C14.6,16.4,14.6,16.6,14.6,16.9z"/>
		<path class="st2" d="M10.7,18.8c0.3,0,0.6,0,0.9,0c1,0,2.1,0,3.1,0c0.2,0,0.2,0,0.2,0.2c0.1,0.9,0.2,1.9,0.3,2.8
			c0,0.3,0.1,0.6,0.1,0.9c-1.7,0-3.4,0-5.1,0C10.4,21.4,10.6,20.1,10.7,18.8z"/>
		<path class="st2" d="M4.1,25.8c0-0.1,0-0.3,0-0.4c0,0,0,0,0.1,0c0,0.2,0,0.4,0,0.6C4.1,26.1,4.1,26,4.1,25.8
			c-0.2,0-0.2-0.1-0.3-0.2c-0.1,0.1,0,0.3-0.1,0.4c0-0.2,0-0.4,0-0.6C4,25.4,4,25.7,4.1,25.8z"/>
		<path class="st2" d="M3.2,26.1c0-0.1,0-0.2,0-0.3c0,0-0.1-0.1-0.1-0.1c0,0-0.1,0.1-0.1,0.1c0,0.1,0,0.1,0,0.2C3,26,3,26,3,26.1
			c0,0,0,0-0.1,0c0-0.1,0-0.1,0-0.2c0-0.1-0.1-0.1-0.1-0.2c0,0.1-0.1,0.1-0.1,0.2c0,0,0,0.1,0,0.1c0,0,0,0-0.1,0.1
			c0-0.2,0-0.3,0-0.5c0.2,0,0.3,0,0.5,0c0.1,0,0.2,0.1,0.2,0.1c0,0.1,0,0.2,0,0.3C3.3,26,3.3,26,3.2,26.1z"/>
		<path class="st2" d="M8.6,25.1c0-0.2,0-0.4,0-0.6c0.2,0,0.4-0.1,0.5,0.1c0.1,0.1,0.1,0.3,0,0.4C9,25.1,8.8,25.1,8.6,25.1z
			 M8.7,24.5c0,0.2,0,0.3,0,0.5c0.3,0,0.3,0,0.3-0.2C9,24.6,9,24.5,8.7,24.5z"/>
		<path class="st2" d="M3.3,24.7c-0.1,0-0.2,0-0.3,0C3,24.6,3.1,24.6,3.3,24.7c0.1-0.1,0.1,0,0.1,0.1c0,0.1,0,0.2,0,0.3
			c-0.1,0-0.2,0-0.3,0C3,25.1,3,25,3,24.9c0,0,0.1-0.1,0.1-0.1C3.1,24.8,3.2,24.8,3.3,24.7C3.3,24.7,3.3,24.7,3.3,24.7z"/>
		<path class="st2" d="M2,24.8c0,0.2-0.1,0.3-0.3,0.3c-0.2,0-0.3-0.1-0.3-0.3c0-0.2,0.1-0.3,0.3-0.3c0.1,0,0.3,0,0.3,0.2
			c-0.2,0-0.3-0.3-0.5,0c-0.1,0.2,0,0.4,0.2,0.3C1.9,24.9,1.9,24.9,2,24.8z"/>
		<path class="st2" d="M7.2,24.7c-0.2,0-0.3-0.3-0.5,0c0,0.1,0,0.2,0,0.3c0.2,0.2,0.3,0,0.4-0.1c0,0.2-0.1,0.3-0.2,0.3
			c-0.2,0-0.3-0.1-0.3-0.3c0-0.2,0.1-0.3,0.2-0.4C7,24.4,7.1,24.5,7.2,24.7z"/>
		<path class="st2" d="M4.8,24.6c0,0,0-0.1,0-0.1c0,0,0,0,0,0c0,0,0,0,0,0.1c0,0.2,0,0.4,0,0.6c-0.1,0-0.1,0-0.2,0
			c-0.1,0-0.2,0-0.3-0.1c0-0.1,0-0.2,0-0.3C4.5,24.6,4.7,24.6,4.8,24.6z M4.7,24.6C4.7,24.6,4.6,24.6,4.7,24.6
			c-0.1,0.1-0.2,0.1-0.2,0.2c0,0.1,0.1,0.1,0.1,0.2c0-0.1,0.1-0.1,0.1-0.2C4.8,24.8,4.7,24.7,4.7,24.6z"/>
		<path class="st2" d="M5.3,25.1c0-0.2,0-0.4,0-0.6c0,0,0,0,0.1,0c0,0.1,0,0.1,0.1,0.2c0.2,0,0.3,0,0.4,0.2c0,0.1,0,0.2-0.2,0.3
			C5.5,25.1,5.4,25.1,5.3,25.1z M5.7,24.8c-0.1-0.1-0.1-0.1-0.2-0.2c0,0.1-0.1,0.1-0.1,0.2c0,0,0.1,0.1,0.1,0.1
			C5.6,25,5.6,24.9,5.7,24.8z"/>
		<path class="st2" d="M10,24.6c0.1,0,0.2,0,0.3,0.1c0.1,0.1,0.1,0.2,0,0.3c0,0.1,0,0.1-0.5,0.1c0-0.2,0-0.4,0-0.6c0,0,0,0,0.1,0
			C9.9,24.5,9.9,24.5,10,24.6z M10.1,25.1c0.1-0.1,0.1-0.2,0.1-0.2c0-0.1-0.1-0.1-0.1-0.2c0,0.1-0.1,0.1-0.1,0.2
			C10,24.9,10,24.9,10.1,25.1z"/>
		<path class="st2" d="M10.6,24.6c0.1,0,0.2,0,0.3,0.1c0.1,0.1,0.1,0.2,0,0.3c-0.1,0.2-0.3,0.1-0.5,0.1c0-0.2,0-0.4,0-0.6
			c0,0,0,0,0,0C10.5,24.5,10.6,24.5,10.6,24.6z M10.6,25C10.7,25,10.7,25,10.6,25c0.1,0,0.2-0.1,0.2-0.2c0-0.1-0.1-0.1-0.1-0.2
			c0,0-0.1,0.1-0.1,0.1C10.6,24.9,10.6,24.9,10.6,25z"/>
		<path class="st2" d="M6.3,25.4c0.4,0,0.5,0,0.5,0.1c0,0.3-0.2,0.2-0.4,0.2c0,0.1,0,0.2-0.1,0.3c0,0,0,0-0.1,0
			C6.3,25.8,6.3,25.6,6.3,25.4z M6.4,25.7c0.1,0,0.2-0.1,0.3-0.1c0,0,0-0.1,0-0.1c-0.1,0-0.2,0-0.3-0.1C6.4,25.6,6.4,25.6,6.4,25.7z
			"/>
		<path class="st2" d="M4.3,24.9C4.3,25.1,4.1,25.1,4,25c-0.1-0.1-0.2-0.2-0.1-0.3c0-0.1,0.1-0.2,0.3-0.2
			C4.3,24.6,4.4,24.7,4.3,24.9c-0.1-0.1-0.2-0.1-0.3-0.1C4.1,25.1,4.2,24.9,4.3,24.9z"/>
		<path class="st2" d="M2.9,24.9c-0.1,0.1-0.2,0.2-0.3,0.1c-0.1,0-0.2-0.2-0.1-0.3c0-0.1,0.1-0.2,0.2-0.2
			C2.8,24.6,2.9,24.7,2.9,24.9c-0.1-0.1-0.2-0.1-0.3-0.1C2.6,25,2.6,25,2.9,24.9z"/>
		<path class="st2" d="M8.5,25.8c-0.1,0-0.2,0-0.3,0C8.2,26.1,8.3,25.9,8.5,25.8c-0.1,0.2-0.2,0.2-0.3,0.2C8,26,8,25.9,8,25.8
			c0-0.1,0.1-0.2,0.2-0.2C8.4,25.6,8.5,25.7,8.5,25.8z"/>
		<path class="st2" d="M6,24.9c0.1-0.1,0.1-0.2,0.2-0.3c0,0,0,0,0,0c0,0.4-0.2,0.7-0.4,0.6c0.3-0.2,0-0.4,0-0.6
			C5.9,24.6,5.9,24.6,6,24.9z"/>
		<path class="st2" d="M7.7,25.8C7.7,26,7.6,26,7.4,26c-0.2,0-0.2-0.1-0.2-0.2c0-0.2,0.1-0.2,0.2-0.2C7.6,25.6,7.7,25.7,7.7,25.8z
			 M7.6,25.8c-0.1-0.1-0.1-0.2-0.2-0.1c0,0-0.1,0.1-0.1,0.1c0,0.1,0.1,0.1,0.1,0.2C7.5,25.9,7.6,25.9,7.6,25.8z"/>
		<path class="st2" d="M9.5,25.1c-0.2,0-0.2-0.1-0.2-0.2c0-0.1,0.1-0.2,0.2-0.2c0.1,0,0.2,0.1,0.2,0.2C9.7,25,9.6,25.1,9.5,25.1z
			 M9.5,24.6c-0.1,0.1-0.1,0.2-0.1,0.2c0,0.1,0.1,0.1,0.1,0.2c0-0.1,0.1-0.1,0.1-0.2C9.6,24.8,9.5,24.7,9.5,24.6z"/>
		<path class="st2" d="M4.9,25.8C4.9,26,4.8,26,4.6,26c-0.2,0-0.2-0.1-0.2-0.2c0-0.2,0.1-0.2,0.2-0.2C4.8,25.6,4.9,25.7,4.9,25.8z
			 M4.8,25.8c-0.1-0.1-0.1-0.2-0.2-0.2c0,0-0.1,0.1-0.1,0.1c0,0.1,0.1,0.1,0.1,0.2C4.7,25.9,4.7,25.9,4.8,25.8z"/>
		<path class="st2" d="M2.3,25.6c0.2,0,0.2,0.1,0.3,0.2c0,0.2-0.1,0.2-0.2,0.3c-0.2,0-0.2-0.1-0.3-0.2C2.1,25.7,2.2,25.6,2.3,25.6z
			 M2.5,25.8c-0.1-0.1-0.1-0.2-0.2-0.2c0,0-0.1,0.1-0.1,0.1c0,0.1,0.1,0.1,0.1,0.2C2.4,25.9,2.4,25.9,2.5,25.8z"/>
		<path class="st2" d="M11.7,24.9c0.1,0,0.2,0,0.3,0.1c0,0,0,0,0-0.1c0,0-0.1,0-0.1-0.1c-0.1,0-0.1-0.1-0.2-0.2
			c0.1,0,0.2-0.1,0.2-0.1c0,0,0.1,0.1,0.2,0.1c0,0,0,0,0,0.1c0,0-0.1,0-0.1,0c0,0-0.1,0-0.1,0c0,0,0,0,0,0.1c0.1,0,0.1,0,0.2,0.1
			c0,0,0.1,0.1,0.1,0.1c0,0-0.1,0.1-0.1,0.1C11.9,25.1,11.8,25.1,11.7,24.9z"/>
		<path class="st2" d="M8.2,24.7c-0.1,0-0.2,0-0.2-0.1c0,0,0,0,0,0.1C8,24.7,8,24.8,8.2,24.7c0,0.1,0,0.2,0,0.2c0,0-0.1,0.1-0.1,0.1
			c-0.1,0-0.2,0-0.3-0.1c0.1,0,0.2,0,0.3,0.1c0,0,0,0,0-0.1c0,0-0.1,0-0.1-0.1c-0.1,0-0.1-0.1-0.2-0.2c0.1,0,0.1-0.1,0.2-0.1
			C8.1,24.6,8.1,24.6,8.2,24.7C8.2,24.7,8.2,24.7,8.2,24.7z"/>
		<path class="st2" d="M11.6,25.1c0,0,0-0.1-0.1-0.1c0-0.1,0-0.1,0-0.2c0,0-0.1-0.1-0.1-0.1c0,0-0.1,0.1-0.1,0.1c0,0.1,0,0.1,0,0.2
			c0,0,0,0-0.1,0.1c0-0.2,0-0.4,0-0.5c0.1,0,0.3,0,0.4,0.1C11.7,24.8,11.6,24.9,11.6,25.1C11.6,25.1,11.6,25.1,11.6,25.1z"/>
		<path class="st2" d="M5.5,25.6c0.1,0,0.3,0,0.4,0.1c0.1,0.1,0,0.3,0,0.4c0,0,0,0-0.1,0c0,0,0-0.1-0.1-0.1c0-0.1,0-0.1,0-0.2
			c0-0.1-0.1-0.1-0.1-0.1c0,0-0.1,0.1-0.1,0.1c0,0.1,0,0.1,0,0.2c0,0,0,0-0.1,0.1C5.5,25.9,5.5,25.7,5.5,25.6z"/>
		<path class="st2" d="M5.3,25.6c0,0.2,0,0.3,0,0.5c-0.4,0-0.5,0-0.4-0.5c0,0,0.1,0.1,0.1,0.1c0,0.1,0,0.1,0,0.2c0,0,0,0.1,0.1,0.1
			c0,0,0.1-0.1,0.1-0.1C5.3,25.8,5.2,25.7,5.3,25.6C5.3,25.6,5.3,25.6,5.3,25.6C5.3,25.6,5.3,25.6,5.3,25.6z"/>
		<path class="st2" d="M8.9,25.9c0,0.2-0.1,0.2-0.3,0.2c-0.1,0-0.2-0.1-0.2-0.3c0-0.1,0.1-0.2,0.2-0.2c0.1,0,0.2,0,0.2,0.1
			c-0.1,0-0.2,0-0.3,0c-0.1,0.1,0,0.3,0.1,0.2C8.8,25.9,8.9,25.9,8.9,25.9z"/>
		<path class="st2" d="M3.8,24.6c-0.1,0.1-0.1,0.3,0,0.4c-0.1,0-0.2,0-0.2-0.1c0-0.1-0.1-0.2-0.1-0.3c0-0.1,0.1-0.1,0.1-0.2
			C3.7,24.5,3.7,24.6,3.8,24.6z"/>
		<path class="st2" d="M9.4,26c-0.2,0-0.2,0-0.2-0.2c0-0.1-0.1-0.2,0-0.2c0-0.1,0.1-0.1,0.1-0.2c0.1,0.1,0.1,0.1,0.2,0.2
			C9.2,25.7,9.2,25.9,9.4,26z"/>
		<path class="st2" d="M1.7,25.4c0,0.3-0.1,0.5-0.1,0.7c0,0-0.1,0-0.1,0c0-0.1,0-0.3,0-0.4c0-0.1,0-0.1,0-0.2
			C1.6,25.5,1.6,25.4,1.7,25.4z"/>
		<path class="st2" d="M7.8,26.2c0-0.2,0-0.5,0.1-0.7c0.1,0,0.1,0.4,0.1,0.6C7.9,26.2,7.8,26.2,7.8,26.2z"/>
		<path class="st2" d="M6.9,26.1c0-0.2,0-0.3,0-0.5c0.1,0,0.2,0,0.3,0c-0.1,0.1-0.1,0.1-0.2,0.2C7,25.9,7.1,26,6.9,26.1z"/>
		<path class="st2" d="M2.4,24.6c-0.1,0.1-0.1,0.1-0.2,0.2c0,0.1,0.1,0.2-0.1,0.3c0-0.2,0-0.3,0-0.5C2.2,24.6,2.3,24.6,2.4,24.6z"/>
		<path class="st2" d="M1.8,25.6c0.1,0,0.2,0,0.3,0c-0.1,0.1-0.1,0.2-0.2,0.2c0,0.1,0,0.2,0,0.2c0,0,0,0-0.1,0
			C1.8,25.9,1.8,25.7,1.8,25.6z"/>
		<path class="st2" d="M7.5,24.6c-0.1,0.1-0.1,0.1-0.2,0.2c0,0.1,0,0.2-0.1,0.3c0-0.2,0-0.3,0-0.5C7.4,24.6,7.5,24.6,7.5,24.6z"/>
		<path class="st2" d="M11.1,25.1c0-0.2,0-0.3,0-0.5C11.2,24.7,11.2,25,11.1,25.1z"/>
		<path class="st2" d="M7.6,24.6c0.1,0.1,0.1,0.4,0,0.5C7.6,24.9,7.6,24.7,7.6,24.6z"/>
	</g>
</g>
</svg>
