<?xml version="1.0" encoding="utf-8"?>
<!-- Generator: Adobe Illustrator 19.1.0, SVG Export Plug-In . SVG Version: 6.00 Build 0)  -->
<svg version="1.1" id="Layer_1" xmlns="http://www.w3.org/2000/svg" xmlns:xlink="http://www.w3.org/1999/xlink" x="0px" y="0px"
	 viewBox="0 0 25.1 25.1" style="enable-background:new 0 0 25.1 25.1;" xml:space="preserve">
<style type="text/css">
	.st0{fill:#6ABC45;stroke:#727273;stroke-miterlimit:10;}
	.st1{clip-path:url(#SVGID_2_);}
	.st2{fill:#606060;}
</style>
<path class="st0" d="M18.9,24.5l-12.7,0c-3.1,0-5.7-2.6-5.7-5.7l0-12.7c0-3.1,2.6-5.7,5.7-5.7l12.7,0c3.1,0,5.7,2.6,5.7,5.7l0,12.7
	C24.5,22,22,24.5,18.9,24.5z"/>
<g>
	<defs>
		<rect id="SVGID_1_" x="0.2" y="4.2" width="24.6" height="16.7"/>
	</defs>
	<clipPath id="SVGID_2_">
		<use xlink:href="#SVGID_1_"  style="overflow:visible;"/>
	</clipPath>
	<g class="st1">
		<path class="st2" d="M9.9,17.1c0.1-0.1,0.2-0.2,0.3-0.3c3.5-3.5,7-7,10.5-10.5c0.6-0.6,1.4-0.6,1.9-0.1c0.5,0.5,0.5,1.2,0.1,1.7
			C22.7,7.9,22.6,8,22.5,8c-3.9,3.9-7.7,7.7-11.6,11.6c-0.4,0.4-0.8,0.6-1.4,0.4C9.4,20,9.2,19.8,9,19.7c-1.8-1.7-3.5-3.5-5.2-5.2
			c-0.5-0.5-0.5-1.3,0-1.8c0.5-0.5,1.3-0.5,1.9,0C7,14,8.3,15.4,9.7,16.8C9.8,16.8,9.8,16.9,9.9,17.1z"/>
		<path class="st2" d="M11.6,30.8c0-0.3,0-0.6,0-0.9c0.2,0,0.5,0,0.7,0.1c0.1,0.1,0.2,0.5,0.1,0.6C12.2,30.9,11.9,30.7,11.6,30.8z
			 M11.7,30.7c0.2,0,0.3-0.1,0.4-0.1c0,0,0-0.1,0-0.1c-0.1,0-0.3-0.1-0.4-0.1C11.7,30.4,11.7,30.5,11.7,30.7z M11.8,29.9
			c0,0-0.1,0.1-0.1,0.1c0.1,0.1,0.1,0.2,0.2,0.2c0.1,0,0.2-0.1,0.3-0.1C12,30,11.9,30,11.8,29.9z"/>
		<path class="st2" d="M0.7,31.8c0.1-0.2-0.1-0.4,0.2-0.6c0,0.3,0,0.6,0,0.9c-0.1,0-0.1,0-0.5-0.6c0,0.2,0,0.4-0.1,0.6
			c0,0-0.1,0-0.1,0c0-0.3,0-0.6,0-0.9C0.5,31.3,0.5,31.6,0.7,31.8z"/>
		<path class="st2" d="M-1,32.1c0-0.1,0-0.2,0-0.3c0-0.1-0.1-0.2-0.1-0.3c-0.1,0.1-0.1,0.2-0.1,0.3c0,0.1,0,0.2,0,0.3
			c0,0-0.1,0-0.1,0c0-0.2,0-0.4,0-0.7c0.2,0,0.5,0,0.7,0c0.1,0,0.2,0.1,0.2,0.1c0,0.2,0,0.4,0,0.6c0,0-0.1,0-0.1,0
			c0-0.2,0-0.3,0-0.4c0-0.1-0.1-0.1-0.1-0.2c0,0.1-0.1,0.1-0.1,0.2c0,0.1,0,0.3,0,0.4C-0.9,32.1-0.9,32.1-1,32.1z"/>
		<path class="st2" d="M7.5,30.8c0-0.2,0-0.3,0-0.4c0-0.1-0.1-0.1-0.1-0.2c-0.1,0.1-0.1,0.1-0.1,0.2c0,0.1,0,0.2,0,0.3
			c0,0-0.1,0.1-0.1,0.1c0-0.2,0-0.3,0-0.4c0-0.1-0.1-0.1-0.1-0.2c0,0.1-0.1,0.1-0.1,0.2c0,0.1,0,0.2,0,0.3c0,0-0.1,0.1-0.1,0.1
			c0-0.3,0-0.5,0-0.7c0.3,0,0.5,0,0.8,0c0,0,0.1,0,0.1,0C7.7,30.1,7.7,30.6,7.5,30.8z"/>
		<path class="st2" d="M13.2,30.7c-0.1,0-0.3,0-0.4,0c-0.1,0-0.2-0.1-0.3-0.2c0.1-0.1,0.1-0.2,0.2-0.2c0.1,0,0.2,0,0.3-0.1
			c-0.1-0.3-0.3,0-0.4,0c0.1-0.2,0.1-0.2,0.3-0.2c0.2,0,0.2,0.1,0.2,0.3C13.1,30.4,13.1,30.6,13.2,30.7z"/>
		<path class="st2" d="M8.2,30.2c-0.1,0-0.3,0-0.4,0.1c0.1-0.2,0.1-0.2,0.3-0.2c0.2,0,0.2,0.1,0.2,0.3c0,0.1,0,0.3,0,0.4
			c-0.1,0-0.3,0-0.4,0c-0.1,0-0.2-0.1-0.2-0.2c0.1-0.1,0.1-0.2,0.2-0.2C8,30.3,8.1,30.3,8.2,30.2C8.2,30.3,8.2,30.2,8.2,30.2z"/>
		<path class="st2" d="M-1,30.1c0.1,0,0.3-0.1,0.4-0.1c0.1,0,0.1,0.2,0.2,0.3c0,0.1,0,0.2,0,0.3c-0.1,0-0.3,0-0.4,0
			c-0.1,0-0.2-0.1-0.2-0.2c0.1-0.1,0.1-0.2,0.2-0.2c0.1,0,0.2,0,0.3-0.1c0,0,0-0.1,0-0.1c-0.1,0-0.3,0-0.4,0
			C-0.9,30.2-1,30.2-1,30.1z"/>
		<path class="st2" d="M-2.3,30.2c-0.2,0-0.5-0.4-0.6,0c0,0.1,0,0.3,0,0.4c0.2,0.3,0.4,0,0.6-0.2c0,0.3-0.1,0.4-0.3,0.4
			c-0.3,0-0.5-0.1-0.5-0.4c0-0.2,0.1-0.5,0.3-0.5C-2.6,29.8-2.4,29.9-2.3,30.2z"/>
		<path class="st2" d="M1.6,30c0,0,0-0.1,0.1-0.2c0,0,0,0,0.1,0c0,0,0,0.1,0,0.1c0,0.2,0,0.5,0,0.8c-0.1,0-0.2,0-0.2,0
			c-0.2,0-0.3,0-0.4-0.1c0-0.1,0-0.3,0-0.4C1.3,30.1,1.4,30.1,1.6,30z M1.7,30.4c-0.1-0.1-0.2-0.2-0.3-0.2c-0.1,0-0.2,0.1-0.2,0.2
			c0,0.1,0.1,0.2,0.2,0.2C1.5,30.6,1.6,30.5,1.7,30.4z"/>
		<path class="st2" d="M2.3,30.7c0-0.3,0-0.6,0-0.9c0,0,0,0,0.1,0c0,0.1,0.1,0.2,0.1,0.3C2.8,30,3,30.1,3,30.3
			c0,0.1-0.1,0.3-0.2,0.4C2.7,30.8,2.5,30.7,2.3,30.7z M2.7,30.2C2.7,30.2,2.6,30.2,2.7,30.2c-0.1,0.1-0.2,0.2-0.2,0.3
			c0,0.1,0.1,0.1,0.2,0.2c0.1-0.1,0.2-0.2,0.2-0.2C2.9,30.3,2.8,30.2,2.7,30.2z"/>
		<path class="st2" d="M4,31.8c0,0.1-0.1,0.2-0.1,0.4c0,0-0.1,0-0.1,0c0-0.3,0-0.6,0-0.9c0.4-0.1,0.7,0,0.7,0.2
			C4.5,31.9,4.2,31.7,4,31.8z M3.9,31.7c0.2-0.1,0.3-0.1,0.4-0.1c0,0,0-0.1,0-0.1c-0.1,0-0.2-0.1-0.4-0.1
			C3.9,31.5,3.9,31.6,3.9,31.7z"/>
		<path class="st2" d="M6.8,31.8c-0.2,0-0.3,0-0.5,0C6.5,32.1,6.6,31.9,6.8,31.8c-0.1,0.3-0.2,0.3-0.4,0.3c-0.2,0-0.3-0.2-0.2-0.4
			c0-0.2,0.1-0.3,0.3-0.3C6.7,31.4,6.8,31.6,6.8,31.8z"/>
		<path class="st2" d="M11.1,30.4c-0.2,0-0.3,0-0.5,0C10.7,30.8,10.9,30.5,11.1,30.4c-0.1,0.3-0.3,0.3-0.5,0.3
			c-0.2-0.1-0.2-0.2-0.2-0.4c0-0.2,0.1-0.3,0.3-0.3C11,30.1,11.1,30.2,11.1,30.4z"/>
		<path class="st2" d="M1,30.4c-0.2,0-0.3,0-0.5,0c0.1,0.3,0.3,0.1,0.5,0.1c-0.1,0.2-0.2,0.2-0.4,0.2c-0.2,0-0.3-0.2-0.2-0.4
			c0-0.2,0.1-0.3,0.3-0.3C0.9,30.1,1,30.2,1,30.4z"/>
		<path class="st2" d="M-1.1,30.5c-0.1,0.3-0.3,0.3-0.5,0.2c-0.2-0.1-0.2-0.2-0.2-0.4c0-0.2,0.2-0.3,0.4-0.2
			C-1.2,30.1-1.1,30.2-1.1,30.5c-0.2-0.1-0.3-0.1-0.5,0C-1.5,30.8-1.3,30.6-1.1,30.5z"/>
		<path class="st2" d="M5.1,30.7c0-0.3,0-0.6,0-0.9c0,0,0,0,0.1,0c0,0.1,0.1,0.2,0.1,0.3c0.4-0.1,0.5,0,0.4,0.6c0,0,0,0-0.1,0
			c0-0.1,0-0.2-0.1-0.2c0-0.1,0.1-0.3-0.1-0.3c-0.2,0-0.1,0.2-0.1,0.3C5.2,30.6,5.2,30.7,5.1,30.7C5.1,30.8,5.1,30.7,5.1,30.7z"/>
		<path class="st2" d="M3.1,30.9c0.4-0.3-0.1-0.6,0-0.9c0.1,0,0.1,0,0.3,0.4c0.1-0.2,0.2-0.3,0.2-0.5c0,0,0.1,0,0.1,0.1
			c-0.1,0.3-0.2,0.6-0.3,0.8C3.4,31,3.3,31,3.1,30.9C3.2,31,3.1,31,3.1,30.9z"/>
		<path class="st2" d="M5.4,31.4c0.2,0,0.4,0.1,0.4,0.3c0,0.2-0.1,0.4-0.3,0.4c-0.2,0-0.4-0.1-0.4-0.3C5.1,31.6,5.2,31.5,5.4,31.4z
			 M5.4,31.5c-0.1,0.2-0.2,0.3-0.2,0.3c0,0.1,0.1,0.1,0.2,0.2c0.1-0.1,0.2-0.2,0.2-0.2C5.6,31.7,5.5,31.6,5.4,31.5z"/>
		<path class="st2" d="M1.7,31.8c0,0.2-0.1,0.3-0.3,0.3C1.2,32.1,1,32,1,31.8c0-0.2,0.1-0.3,0.3-0.3C1.6,31.4,1.7,31.6,1.7,31.8z
			 M1.5,31.5C1.4,31.5,1.4,31.5,1.5,31.5c-0.1,0.1-0.2,0.2-0.2,0.2c0,0.1,0.1,0.2,0.2,0.2c0.1-0.1,0.2-0.1,0.2-0.2
			C1.6,31.7,1.5,31.6,1.5,31.5z"/>
		<path class="st2" d="M-1.9,32.1c-0.2,0-0.3-0.1-0.4-0.3c0-0.2,0.1-0.3,0.3-0.4c0.2,0,0.3,0.1,0.4,0.3C-1.5,32-1.6,32.1-1.9,32.1z
			 M-1.6,31.8c-0.1-0.1-0.2-0.2-0.3-0.2c-0.1,0-0.2,0.1-0.2,0.2c0,0.1,0.1,0.2,0.2,0.2C-1.8,32-1.7,31.9-1.6,31.8z"/>
		<path class="st2" d="M6.5,30.4c0,0.2-0.1,0.3-0.3,0.4c-0.2,0-0.3-0.1-0.4-0.3c0-0.2,0.1-0.3,0.3-0.4C6.4,30.1,6.5,30.2,6.5,30.4z
			 M6.1,30.7c0.1-0.2,0.2-0.2,0.2-0.3c0-0.1-0.1-0.2-0.2-0.2C6.1,30.3,6,30.3,6,30.4C6,30.5,6.1,30.6,6.1,30.7z"/>
		<path class="st2" d="M8.5,30.5c0.1,0,0.3,0.1,0.4,0.1c0,0,0-0.1,0-0.1c-0.1,0-0.1,0-0.2-0.1c-0.1-0.1-0.1-0.2-0.2-0.2
			c0.1,0,0.2-0.1,0.3-0.1c0.1,0,0.2,0.1,0.2,0.1c0,0,0,0,0,0.1c-0.1,0-0.2,0-0.3-0.1c0,0,0,0.1,0,0.1c0.1,0,0.2,0,0.2,0.1
			C9,30.4,9,30.5,9.1,30.6c-0.1,0.1-0.2,0.2-0.3,0.2c-0.1,0-0.2-0.1-0.4-0.1C8.5,30.6,8.5,30.6,8.5,30.5z"/>
		<path class="st2" d="M13.3,30.5c0.2,0,0.3,0.1,0.4,0.1c0,0,0-0.1,0-0.1c-0.1,0-0.1,0-0.2-0.1c-0.1-0.1-0.2-0.2-0.2-0.2
			c0.1,0,0.2-0.1,0.3-0.1c0.1,0,0.2,0.1,0.3,0.1c0,0,0,0.1,0,0.1c-0.1,0-0.1,0-0.2-0.1c-0.1,0-0.1,0-0.2,0c0,0,0,0,0,0.1
			c0.1,0,0.2,0,0.3,0.1c0.1,0,0.2,0.1,0.2,0.2c0,0.1-0.1,0.2-0.2,0.2C13.5,30.8,13.4,30.8,13.3,30.5z"/>
		<path class="st2" d="M2.6,31.4c0.2,0,0.4,0,0.5,0.1c0.1,0.1,0.1,0.4,0.1,0.6c0,0,0,0-0.1,0c0,0-0.1-0.1-0.1-0.1c0-0.1,0-0.2,0-0.3
			c0-0.1-0.1-0.1-0.1-0.2c-0.1,0.1-0.1,0.1-0.2,0.2c0,0.1,0,0.2,0,0.3c0,0,0,0.1-0.1,0.1C2.6,31.9,2.6,31.7,2.6,31.4z"/>
		<path class="st2" d="M2.4,32.2c-0.2,0-0.4,0-0.5-0.1c-0.1-0.1-0.1-0.4-0.1-0.6c0,0,0,0,0.1,0c0,0,0.1,0.1,0.1,0.1
			c0,0.1,0,0.2,0,0.3C2,31.9,2.1,32,2.1,32c0.1-0.1,0.1-0.1,0.1-0.2c0-0.1,0-0.2,0-0.3c0,0,0.1-0.1,0.1-0.1
			C2.4,31.7,2.4,31.9,2.4,32.2z"/>
		<path class="st2" d="M7.6,31.6c-0.2,0-0.3,0-0.4,0c0,0.1,0,0.2,0,0.3c0.1,0,0.3,0,0.4,0c0,0.1-0.1,0.2-0.3,0.2
			c-0.2,0-0.3-0.1-0.3-0.3c0-0.2,0-0.4,0.2-0.4C7.3,31.4,7.5,31.4,7.6,31.6z"/>
		<path class="st2" d="M9.7,30.7c0-0.3,0-0.6,0-0.9c0.2,0.2,0.1,0.5,0.2,0.7c0.2,0,0.3,0,0.5,0.1c0,0,0,0.1,0,0.1
			C10.1,30.7,9.9,30.7,9.7,30.7z"/>
		<path class="st2" d="M4.5,30c-0.1,0-0.2,0-0.3-0.1c0,0,0,0,0-0.1c0.2,0,0.5,0,0.7,0c0,0,0,0,0,0c-0.1,0-0.2,0-0.2,0.1
			c-0.1,0.2,0.1,0.5-0.1,0.8c0,0-0.1,0-0.1,0C4.5,30.5,4.5,30.2,4.5,30z"/>
		<path class="st2" d="M8.1,31.5c-0.2,0.1-0.2,0.4,0,0.6c-0.2,0-0.3,0-0.3-0.2c0-0.1-0.1-0.3-0.1-0.4c0-0.1,0.1-0.2,0.1-0.3
			C7.9,31.3,8,31.4,8.1,31.5z"/>
		<path class="st2" d="M0.2,30.7c-0.2,0-0.3,0-0.3-0.2c0-0.1-0.1-0.3-0.1-0.4c0-0.1,0.1-0.2,0.1-0.3c0.1,0.1,0.2,0.2,0.2,0.3
			C0,30.3,0,30.5,0.2,30.7z"/>
		<path class="st2" d="M-3,32.1c0-0.2-0.1-0.4-0.1-0.7c0.1,0,0.1-0.3,0.3-0.2C-2.8,31.6-2.9,31.8-3,32.1C-2.9,32.1-2.9,32.1-3,32.1z
			"/>
		<path class="st2" d="M5.9,32.4c0-0.4,0-0.7,0.1-1c0,0,0.1,0,0.1,0c0.1,0.2,0,0.5,0,0.8C6.1,32.3,5.9,32.4,5.9,32.4z"/>
		<path class="st2" d="M4.7,31.5c0.1,0,0.2,0,0.4,0c-0.1,0.1-0.2,0.2-0.2,0.3c-0.1,0.1,0.1,0.3-0.1,0.4C4.7,31.9,4.7,31.7,4.7,31.5z
			"/>
		<path class="st2" d="M-1.8,30.1C-1.9,30.2-2,30.3-2,30.4c0,0.1,0,0.2,0,0.4c0,0-0.1,0-0.1,0c0-0.2,0-0.4,0-0.7
			C-2,30.1-1.9,30.1-1.8,30.1z"/>
		<path class="st2" d="M-2.6,32.1c0-0.2,0-0.4,0-0.7c0.1,0,0.3,0,0.4,0c-0.1,0.1-0.2,0.2-0.2,0.3C-2.5,31.9-2.5,32-2.6,32.1
			C-2.6,32.1-2.6,32.1-2.6,32.1z"/>
	</g>
</g>
</svg>
