<?xml version="1.0" encoding="utf-8"?>
<!-- Generator: Adobe Illustrator 19.1.0, SVG Export Plug-In . SVG Version: 6.00 Build 0)  -->
<svg version="1.1" id="Layer_1" xmlns="http://www.w3.org/2000/svg" xmlns:xlink="http://www.w3.org/1999/xlink" x="0px" y="0px"
	 viewBox="0 0 25.1 25.1" style="enable-background:new 0 0 25.1 25.1;" xml:space="preserve">
<style type="text/css">
	.st0{fill:#EC1E24;stroke:#727273;stroke-miterlimit:10;}
	.st1{clip-path:url(#SVGID_2_);}
	.st2{fill:#606060;}
</style>
<path class="st0" d="M18.8,24.6H6.2c-3.1,0-5.7-2.6-5.7-5.7l0-12.7c0-3.1,2.6-5.7,5.7-5.7l12.7,0c3.1,0,5.7,2.6,5.7,5.7v12.7
	C24.5,22,22,24.6,18.8,24.6z"/>
<g>
	<defs>
		<rect id="SVGID_1_" x="1.2" y="2.5" width="22.6" height="20.5"/>
	</defs>
	<clipPath id="SVGID_2_">
		<use xlink:href="#SVGID_1_"  style="overflow:visible;"/>
	</clipPath>
	<g class="st1">
		<path class="st2" d="M20.1,22.4c-0.4,0-0.7-0.2-1-0.5c-1.8-1.8-3.5-3.5-5.3-5.3c-0.5-0.5-1.1-0.6-1.6-0.3
			c-0.2,0.1-0.3,0.2-0.4,0.3c-1.7,1.7-3.4,3.4-5.1,5.1c-0.7,0.7-1.4,0.7-2.1,0c-0.3-0.3-0.7-0.7-1-1c-0.6-0.6-0.6-1.4,0-2
			c1.7-1.7,3.5-3.5,5.2-5.2c0.7-0.7,0.7-1.4,0-2.1C7,9.9,5.3,8.2,3.6,6.4C2.9,5.8,2.9,5,3.6,4.3c0.3-0.3,0.7-0.7,1-1
			c0.6-0.6,1.4-0.6,2,0c1.7,1.7,3.4,3.4,5.2,5.2c0.7,0.7,1.4,0.7,2.1,0c1.7-1.7,3.4-3.4,5.1-5.1c0.6-0.6,1.4-0.6,2.1,0
			c0.3,0.3,0.7,0.7,1,1c0.6,0.6,0.6,1.4,0,2c-1.7,1.7-3.4,3.4-5.2,5.2c-0.7,0.7-0.7,1.4,0,2.1c1.7,1.7,3.5,3.5,5.2,5.2
			c0.7,0.7,0.7,1.4,0,2.1c-0.4,0.4-0.7,0.7-1.1,1.1C20.8,22.2,20.5,22.4,20.1,22.4z"/>
		<path class="st2" d="M3.1,26.6c0.3,0.1,0.2,0.3,0.4,0.5c0-0.2,0-0.3,0-0.5c0,0,0.1,0,0.1,0c0,0.2,0,0.4,0,0.7
			c-0.2,0-0.2-0.3-0.4-0.4c0,0.2,0,0.3,0,0.4c0,0,0,0-0.1,0C3.1,27.1,3.1,26.8,3.1,26.6z"/>
		<path class="st2" d="M2,27.3c0-0.2,0-0.3,0-0.5c0.2,0,0.4,0,0.6,0c0.1,0,0.2,0,0.2,0.1c0,0.1,0,0.3,0,0.4c0,0,0,0-0.1,0
			c0-0.1,0-0.2,0-0.3c0-0.1-0.1-0.1-0.1-0.2c0,0.1-0.1,0.1-0.1,0.2c0,0.1,0,0.2,0,0.3c0,0-0.1,0-0.1,0c0-0.1,0-0.2,0-0.3
			c0-0.1-0.1-0.1-0.1-0.1c0,0-0.1,0.1-0.1,0.2C2,27.1,2.1,27.1,2,27.3C2.1,27.2,2,27.3,2,27.3C2,27.3,2,27.3,2,27.3z"/>
		<path class="st2" d="M8,25.7c0,0.2,0,0.3,0,0.5c0,0.1-0.1,0.2-0.2,0.2c-0.1,0-0.2,0-0.3-0.1c0.1,0,0.3,0.2,0.4-0.1
			c-0.1,0-0.2,0-0.3-0.1c-0.1,0-0.1-0.2-0.1-0.3c0-0.1,0.1-0.2,0.3-0.2C7.8,25.7,7.9,25.7,8,25.7z M7.5,26c0.1,0.1,0.2,0.1,0.2,0.2
			c0-0.1,0.1-0.1,0.1-0.2c0-0.1-0.1-0.1-0.1-0.2C7.6,25.8,7.6,25.9,7.5,26z"/>
		<path class="st2" d="M10.3,26.2c0-0.2,0-0.4,0-0.7c0,0,0,0,0.1,0c0,0.1,0,0.2,0.1,0.3c0.1-0.1,0.2-0.2,0.4-0.3c0,0,0,0,0.1,0.1
			c-0.1,0.1-0.2,0.1-0.3,0.2c0.1,0.2,0.2,0.3,0.3,0.5c-0.3,0-0.3-0.2-0.4-0.3C10.4,26,10.4,26.1,10.3,26.2
			C10.3,26.2,10.3,26.2,10.3,26.2z"/>
		<path class="st2" d="M2.8,26.2c-0.1,0-0.2,0-0.3,0c-0.1,0-0.1-0.1-0.2-0.1c0-0.1,0.1-0.1,0.2-0.2c0.1,0,0.1,0,0.2-0.1
			c-0.1-0.1-0.1-0.1-0.3,0c0.1-0.2,0.2-0.2,0.3-0.1c0.1,0,0.1,0.1,0.2,0.2C2.8,26,2.8,26.1,2.8,26.2z"/>
		<path class="st2" d="M12.6,26.2c-0.1,0-0.2,0-0.3,0c-0.1,0-0.1-0.1-0.2-0.1c0-0.1,0.1-0.1,0.2-0.2c0.1,0,0.1,0,0.2-0.1
			c-0.1-0.1-0.1-0.1-0.3,0c0.1-0.2,0.2-0.2,0.3-0.1c0.1,0,0.1,0.1,0.2,0.2C12.6,26,12.6,26.1,12.6,26.2z"/>
		<path class="st2" d="M4.9,25.5c0,0.1,0.1,0.1,0.1,0.2c0.2-0.1,0.4,0,0.4,0.2c0,0.1,0,0.2-0.1,0.2c0,0.1-0.1,0.1-0.2,0.1
			c-0.1,0-0.2,0-0.2,0C4.8,26,4.8,25.8,4.9,25.5C4.8,25.5,4.9,25.5,4.9,25.5z M5.1,25.8C5.1,25.8,5.1,25.8,5.1,25.8
			C5,25.8,4.9,25.9,4.9,26c0,0.1,0.1,0.1,0.1,0.2c0-0.1,0.1-0.1,0.1-0.2C5.2,25.9,5.1,25.8,5.1,25.8z"/>
		<path class="st2" d="M4.2,25.7c0-0.1,0.1-0.2,0.1-0.2c0,0,0,0,0.1,0c0,0.2,0,0.4,0,0.7c-0.1,0-0.2,0-0.2,0c-0.1,0-0.2-0.1-0.2-0.1
			c0-0.1,0-0.2,0-0.3C4,25.7,4.1,25.7,4.2,25.7C4.2,25.7,4.2,25.7,4.2,25.7z M4.2,25.8C4.1,25.8,4.1,25.8,4.2,25.8
			C4.1,25.8,4,25.9,4,26c0,0.1,0.1,0.1,0.1,0.2c0-0.1,0.1-0.1,0.1-0.2C4.3,25.9,4.2,25.8,4.2,25.8z"/>
		<path class="st2" d="M6.3,26.2C6.3,26.2,6.3,26.2,6.3,26.2c0-0.3,0-0.4,0-0.7c0.2,0,0.4,0,0.5,0c0,0,0,0,0,0.1c-0.1,0-0.2,0-0.3,0
			c-0.1,0-0.2,0.1-0.1,0.2c0.1,0,0.2,0,0.3,0c0,0,0,0,0,0.1c-0.1,0-0.2,0-0.4,0c0,0.1,0,0.1,0,0.2c0.1,0,0.3,0,0.4,0c0,0,0,0,0,0
			C6.6,26.2,6.5,26.2,6.3,26.2z"/>
		<path class="st2" d="M1.3,25.8c-0.2,0-0.4-0.3-0.5,0c0,0.1,0,0.2,0,0.3c0.2,0.2,0.3,0,0.4-0.1c0,0.2-0.1,0.3-0.3,0.3
			c-0.2,0-0.3-0.1-0.4-0.3c0-0.2,0.1-0.3,0.2-0.4C1,25.5,1.2,25.6,1.3,25.8z"/>
		<path class="st2" d="M6.1,27c0,0.1,0,0.2-0.1,0.3c0,0,0,0-0.1,0c0-0.2,0-0.4,0-0.7c0.4-0.1,0.5,0,0.5,0.2C6.5,26.9,6.4,27,6.1,27z
			 M6.1,26.6C6.1,26.7,6.1,26.7,6.1,26.6c0,0.1,0,0.2,0,0.4c0.1-0.1,0.2-0.1,0.3-0.2C6.3,26.7,6.2,26.7,6.1,26.6z"/>
		<path class="st2" d="M8.3,27c-0.1,0-0.2,0-0.4,0C8,27.3,8.1,27.1,8.3,27c-0.1,0.2-0.2,0.3-0.3,0.2c-0.1,0-0.2-0.2-0.2-0.3
			c0-0.1,0.1-0.2,0.2-0.2C8.2,26.8,8.2,26.9,8.3,27z"/>
		<path class="st2" d="M14,26c0.1,0.3,0.2,0.1,0.4,0.1c-0.1,0.2-0.2,0.2-0.3,0.2c-0.1,0-0.2-0.2-0.2-0.3c0-0.1,0.1-0.2,0.3-0.2
			c0.1,0,0.2,0.1,0.2,0.3C14.2,26,14.1,26,14,26z"/>
		<path class="st2" d="M8.5,26c-0.1,0-0.2,0-0.4,0C8.3,26.2,8.4,26.1,8.5,26c-0.1,0.2-0.2,0.3-0.3,0.2c-0.1,0-0.2-0.2-0.2-0.3
			c0-0.1,0.1-0.2,0.3-0.2C8.5,25.7,8.6,25.8,8.5,26z"/>
		<path class="st2" d="M3.8,26.1c-0.1,0.2-0.2,0.2-0.3,0.1c-0.1-0.1-0.1-0.2-0.1-0.3c0-0.1,0.1-0.2,0.3-0.2
			C3.7,25.7,3.8,25.8,3.8,26.1C3.7,26,3.5,26,3.4,26C3.5,26.1,3.5,26.1,3.8,26.1z"/>
		<path class="st2" d="M2.2,26c-0.1,0-0.2,0-0.4,0C1.9,26.2,2,26.1,2.2,26c-0.1,0.2-0.2,0.3-0.3,0.2c-0.1,0-0.2-0.2-0.2-0.3
			c0-0.1,0.1-0.2,0.3-0.2C2.1,25.7,2.2,25.8,2.2,26z"/>
		<path class="st2" d="M13.7,26.2c0,0,0-0.1,0-0.1c0-0.1-0.1-0.3-0.1-0.3c-0.2,0-0.1,0.2-0.1,0.3c0,0,0,0.1-0.1,0.1c0,0,0,0,0,0
			c0-0.2,0-0.5,0-0.7c0,0,0,0,0.1,0c0,0.1,0.1,0.1,0.1,0.2C13.7,25.7,13.8,25.8,13.7,26.2C13.7,26.2,13.7,26.2,13.7,26.2z"/>
		<path class="st2" d="M15.1,25.5c0,0.1,0,0.2,0.1,0.3c0.1-0.1,0.2-0.1,0.3-0.2c0,0,0,0,0,0c0,0.1-0.1,0.1-0.2,0.2
			c0.1,0.1,0.1,0.2,0.2,0.3c0,0,0,0,0,0c-0.1-0.1-0.2-0.2-0.3-0.3c0,0.1-0.1,0.2-0.1,0.2c0,0,0,0-0.1,0C15.1,26,15.1,25.8,15.1,25.5
			C15.1,25.5,15.1,25.5,15.1,25.5z"/>
		<path class="st2" d="M5.7,26c0.1-0.1,0.1-0.2,0.2-0.4c0.1,0.4-0.2,0.8-0.4,0.7c0.1-0.1,0.1-0.1,0-0.7C5.5,25.7,5.5,25.7,5.7,26z"
			/>
		<path class="st2" d="M9.4,26.4c0.2-0.1,0.2-0.2,0.1-0.3c-0.1-0.1-0.1-0.2-0.1-0.4c0.1,0,0.1,0,0.3,0.3c0.1-0.1,0.1-0.2,0.2-0.4
			c0,0,0,0,0,0C9.8,26.1,9.7,26.4,9.4,26.4z"/>
		<path class="st2" d="M1.6,27.3c-0.2,0-0.3-0.1-0.3-0.3c0-0.2,0.1-0.3,0.3-0.3c0.2,0,0.3,0.1,0.3,0.3C1.9,27.2,1.8,27.3,1.6,27.3z
			 M1.8,27c-0.1-0.1-0.2-0.2-0.2-0.2c-0.1,0-0.1,0.1-0.1,0.2c0,0.1,0.1,0.1,0.1,0.2C1.7,27.2,1.7,27.1,1.8,27z"/>
		<path class="st2" d="M8.6,26.2c0-0.2,0-0.3,0-0.5c0.1,0,0.3,0,0.4,0.1c0.1,0.1,0,0.3,0.1,0.4c0,0,0,0-0.1,0c0,0-0.1-0.1-0.1-0.1
			c0-0.1,0-0.2,0-0.2c0-0.1-0.1-0.1-0.1-0.1c0,0-0.1,0.1-0.1,0.1c0,0.1,0,0.1,0,0.2C8.7,26.2,8.7,26.2,8.6,26.2
			C8.7,26.2,8.6,26.2,8.6,26.2z"/>
		<path class="st2" d="M4.1,27.3c-0.2,0-0.3-0.1-0.3-0.3c0-0.2,0.1-0.3,0.3-0.3c0.2,0,0.3,0.1,0.3,0.3C4.4,27.2,4.3,27.3,4.1,27.3z
			 M4.1,26.8C4.1,26.8,4.1,26.8,4.1,26.8C4,26.9,3.9,27,4,27c0,0.1,0.1,0.1,0.1,0.2c0-0.1,0.1-0.1,0.1-0.2C4.2,27,4.2,26.9,4.1,26.8
			z"/>
		<path class="st2" d="M11.5,26c0,0.2-0.1,0.3-0.3,0.3c-0.2,0-0.3-0.1-0.3-0.3c0-0.2,0.1-0.2,0.3-0.2C11.4,25.7,11.5,25.8,11.5,26z
			 M11.2,26.2C11.2,26.2,11.2,26.2,11.2,26.2c0.1-0.1,0.2-0.1,0.2-0.2c0-0.1-0.1-0.1-0.1-0.2c0,0.1-0.1,0.1-0.1,0.2
			C11.1,26,11.1,26.1,11.2,26.2z"/>
		<path class="st2" d="M5,26.8c0.1,0,0.3,0,0.4,0.1c0.1,0.1,0,0.3,0.1,0.4c0,0,0,0-0.1,0c0,0-0.1-0.1-0.1-0.1c0-0.1,0-0.2,0-0.2
			c0,0-0.1-0.1-0.1-0.1c0,0-0.1,0.1-0.1,0.1c0,0.1,0,0.1,0,0.2c0,0,0,0.1,0,0.1c0,0,0,0-0.1,0C5,27.1,5,26.9,5,26.8z"/>
		<path class="st2" d="M7.4,27c0,0.2-0.1,0.3-0.3,0.3c-0.2,0-0.3-0.1-0.3-0.3c0-0.2,0.1-0.2,0.3-0.3C7.3,26.8,7.4,26.9,7.4,27z
			 M7.4,27c-0.1-0.1-0.2-0.2-0.2-0.2C7.1,26.9,7,27,7,27c0,0.1,0.1,0.1,0.1,0.2C7.2,27.2,7.3,27.1,7.4,27z"/>
		<path class="st2" d="M15.9,25.7c0.2,0,0.3,0.1,0.3,0.3c0,0.2-0.1,0.3-0.3,0.2c-0.2,0-0.2-0.1-0.2-0.3
			C15.6,25.8,15.7,25.7,15.9,25.7z M16.1,26c-0.1-0.1-0.2-0.2-0.2-0.2c-0.1,0-0.1,0.1-0.1,0.2c0,0.1,0.1,0.1,0.1,0.2
			C15.9,26.1,16,26,16.1,26z"/>
		<path class="st2" d="M14.8,26.2c0-0.1,0-0.2,0-0.3c0-0.1-0.1-0.1-0.1-0.2c0,0.1-0.1,0.1-0.1,0.2c0,0.1,0,0.2,0,0.3
			c0,0-0.1,0-0.1,0c0-0.2,0-0.3,0-0.5c0.1,0,0.3,0,0.4,0.1c0.1,0.1,0,0.3,0.1,0.4C14.9,26.2,14.8,26.2,14.8,26.2z"/>
		<path class="st2" d="M4.9,26.8c0,0.2,0,0.3,0,0.5c-0.5,0-0.5-0.1-0.4-0.5c0,0.1,0.1,0.1,0.1,0.1c0,0.1,0,0.2,0,0.2
			c0,0,0.1,0.1,0.1,0.1c0,0,0.1-0.1,0.1-0.1c0-0.1,0-0.1,0-0.2C4.8,26.8,4.8,26.8,4.9,26.8C4.9,26.8,4.9,26.8,4.9,26.8z"/>
		<path class="st2" d="M11.7,26.1c0.1,0,0.2,0,0.3,0c0,0,0,0,0,0c-0.1,0-0.3,0-0.5,0c0.1-0.1,0.2-0.3,0.3-0.4c-0.1,0-0.2,0-0.3,0
			c0,0,0,0,0,0c0.1,0,0.3,0,0.5,0C11.9,25.9,11.8,26,11.7,26.1z"/>
		<path class="st2" d="M13.2,25.8c-0.1,0-0.3,0-0.3,0c-0.1,0.1,0,0.3,0.1,0.3c0,0,0.1-0.1,0.1-0.1c0,0,0.1,0,0.1,0
			c-0.1,0.2-0.1,0.2-0.3,0.2c-0.1,0-0.2-0.1-0.2-0.2c0-0.1,0.1-0.2,0.2-0.3C13,25.7,13.1,25.7,13.2,25.8z"/>
		<path class="st2" d="M8.8,27.1c0,0.2-0.1,0.2-0.2,0.2c-0.1,0-0.2-0.1-0.2-0.2c0-0.1,0.1-0.2,0.2-0.3c0.1-0.1,0.2,0,0.3,0.1
			c-0.1,0-0.3-0.2-0.4,0c-0.1,0.1,0,0.3,0.1,0.3C8.7,27.2,8.7,27.1,8.8,27.1z"/>
		<path class="st2" d="M7,25.7c0.1,0.1,0.1,0.2,0.2,0.4c0-0.1,0.1-0.1,0.1-0.2c0-0.1,0.1-0.1,0.1-0.2c0,0,0,0,0.1,0
			c-0.1,0.2-0.1,0.3-0.2,0.5c-0.1,0.1-0.1,0.1-0.2,0C7,26,6.9,25.9,7,25.7C6.9,25.7,6.9,25.7,7,25.7z"/>
		<path class="st2" d="M2.9,25.7c0,0,0-0.1,0.1-0.1c0.1,0.1,0.1,0.1,0.2,0.2c-0.1,0.1-0.1,0.3,0,0.4C3,26.3,3,26.2,3,26.1
			C3,26,2.9,25.8,2.9,25.7z"/>
		<path class="st2" d="M9.3,27.3c-0.2,0-0.3,0-0.3-0.2c0-0.1-0.1-0.2-0.1-0.3c0-0.1,0.1-0.1,0.1-0.2c0.1,0.1,0.1,0.1,0.2,0.2
			C9.1,26.9,9.1,27.1,9.3,27.3z"/>
		<path class="st2" d="M0.7,26.8c0,0,0.1-0.1,0.2-0.2c0,0.3-0.1,0.5-0.1,0.7c0,0,0,0-0.1,0C0.7,27.1,0.7,27,0.7,26.8z"/>
		<path class="st2" d="M7.5,27.5c0-0.3,0-0.5,0-0.7c0,0,0,0,0.1,0c0.1,0.2,0,0.4,0,0.6C7.7,27.4,7.6,27.5,7.5,27.5z"/>
		<path class="st2" d="M1,26.8c0.1,0,0.2,0,0.3,0c-0.1,0.1-0.1,0.2-0.2,0.3c0,0.1,0,0.2,0,0.3c0,0-0.1,0-0.1,0C1,27.1,1,27,1,26.8z"
			/>
		<path class="st2" d="M6.9,26.8c-0.1,0.1-0.1,0.2-0.2,0.3c0,0.1,0,0.2,0,0.3c0,0,0,0-0.1,0c0-0.2,0-0.3,0-0.5
			C6.7,26.8,6.8,26.8,6.9,26.8z"/>
		<path class="st2" d="M1.4,26.2c0-0.2,0-0.3,0-0.5c0.1,0,0.2,0,0.3,0c-0.1,0.1-0.1,0.2-0.2,0.3C1.5,26,1.5,26.1,1.4,26.2
			C1.4,26.2,1.4,26.2,1.4,26.2z"/>
		<path class="st2" d="M9.3,26.2c0-0.2,0-0.3,0-0.6c0.1,0.1,0.1,0.1,0.1,0.1C9.3,25.9,9.4,26.1,9.3,26.2C9.3,26.2,9.3,26.2,9.3,26.2
			z"/>
	</g>
</g>
</svg>
