<?xml version="1.0" encoding="utf-8"?>
<!-- Generator: Adobe Illustrator 19.1.0, SVG Export Plug-In . SVG Version: 6.00 Build 0)  -->
<svg version="1.1" id="Layer_1" xmlns="http://www.w3.org/2000/svg" xmlns:xlink="http://www.w3.org/1999/xlink" x="0px" y="0px"
	 viewBox="0 0 40 40" style="enable-background:new 0 0 40 40;" xml:space="preserve">
<style type="text/css">
	.st0{clip-path:url(#SVGID_2_);}
	.st1{fill:#FFFFFF;}
	.st2{fill:#47619E;}
	.st3{fill:none;}
	.st4{font-family:'Tahoma-Bold';}
	.st5{font-size:17.8594px;}
</style>
<g>
	<defs>
		<rect id="SVGID_1_" x="0" y="3.7" width="40" height="29.2"/>
	</defs>
	<clipPath id="SVGID_2_">
		<use xlink:href="#SVGID_1_"  style="overflow:visible;"/>
	</clipPath>
	<g class="st0">
		<path class="st1" d="M-3.1,44.8c0-15.4,0-30.9,0-46.3c15.4,0,30.9,0,46.3,0c0,15.4,0,30.9,0,46.3C27.8,44.8,12.4,44.8-3.1,44.8z
			 M20.1,32.9c4.2,0,8.5,0,12.7,0c1,0,2,0,3,0c2.2-0.1,3.8-1.8,3.8-4c0-6.1,0-12.1,0-18.2c0-1.9-1.2-3.5-3-3.9
			c-0.7-0.2-1.5-0.1-2.3-0.1c-0.7,0-0.7,0-0.7-0.7c0-0.6-0.4-0.9-0.9-0.9c-1.2,0-2.4,0-3.5,0c-0.5,0-0.8,0.3-0.9,0.7
			c0,0.1,0,0.3,0,0.5c0,0.3-0.1,0.4-0.4,0.4c-2,0-4.1,0-6.1,0c-0.2,0-0.4-0.1-0.4-0.3C21,5.6,20.7,4.8,20.4,4
			c-0.1-0.2-0.1-0.3-0.4-0.3c-3.1,0-6.2,0-9.3,0c-0.2,0-0.4,0.1-0.4,0.3C10,4.8,9.8,5.6,9.5,6.3C9.4,6.6,9.3,6.7,8.9,6.7
			c-1.4,0-2.8,0-4.3,0c-2.3,0-4,1.7-4,4c0,6.1,0,12.1,0,18.2c0,0.4,0.1,0.9,0.2,1.3c0.5,1.4,1.9,2.7,3.9,2.7
			C9.9,32.9,15,32.9,20.1,32.9z M4.5,41.3c0.3,0.2,0.3,0.6,0.7,0.7c0-0.4,0-0.8,0-1.1c0,0-0.1,0-0.1,0C5,41,5.1,41.3,5,41.6
			c-0.3-0.2-0.3-0.6-0.7-0.7c0,0.4,0,0.8,0,1.1C4.5,41.9,4.5,41.9,4.5,41.3z M2.9,42C3,42,3,42,2.9,42c0.1,0,0.2-0.1,0.2-0.1
			c0-0.1,0-0.2,0-0.3c0-0.1,0.1-0.2,0.2-0.2c0.1,0.1,0.1,0.1,0.2,0.2c0,0.1,0,0.3,0,0.5c0.2-0.2,0.2-0.8,0-0.9c0,0-0.1,0-0.2,0
			c-0.3,0-0.6,0-0.9,0c0,0.3,0,0.6,0,0.8c0.1,0,0.2-0.1,0.2-0.1c0-0.1,0-0.2,0-0.4c0-0.1,0.1-0.1,0.2-0.2c0.1,0.1,0.1,0.1,0.2,0.2
			C3,41.7,2.9,41.8,2.9,42z M18.6,39.6c0,0,0,0.1,0,0.1c-0.1,0-0.2,0-0.3,0.1c-0.1,0.1-0.2,0.2-0.3,0.3c0.1,0.1,0.2,0.2,0.3,0.2
			c0.2,0,0.3,0,0.5,0c0-0.2,0-0.3,0-0.5c0-0.1-0.1-0.3-0.3-0.3c-0.2-0.1-0.4,0-0.5,0.2C18.3,39.6,18.4,39.6,18.6,39.6z M12,39.6
			c0.2,0.1,0.4-0.3,0.5,0.1c-0.1,0-0.2,0-0.3,0.1c-0.1,0.1-0.2,0.2-0.3,0.3c0.1,0.1,0.2,0.2,0.3,0.2c0.2,0,0.3,0,0.5,0
			c0-0.2,0-0.3,0-0.4c0-0.2,0-0.3-0.2-0.4C12.4,39.4,12.1,39.4,12,39.6z M3,39.7c0.2,0,0.4,0,0.5-0.1c0,0,0,0.1,0,0.1
			c-0.1,0-0.2,0-0.3,0.1C3.1,39.9,3,40,2.9,40.1c0.1,0.1,0.2,0.2,0.3,0.2c0.2,0,0.4,0,0.5,0c0-0.2,0-0.3-0.1-0.4
			c0-0.1-0.1-0.3-0.2-0.4C3.3,39.4,3.1,39.4,3,39.7z M17.2,39.5c-0.1-0.3-0.3-0.4-0.5-0.3c-0.1,0-0.2,0.2-0.3,0.3
			c0.1,0.1,0.2,0.2,0.3,0.3c0.1,0.1,0.2,0.1,0.3,0.1c0,0,0,0.1,0,0.1c-0.1,0-0.3,0.1-0.4,0c-0.1,0-0.2-0.1-0.3-0.2
			c0,0.3,0.1,0.4,0.4,0.4c0.2,0,0.4,0,0.5-0.3c0-0.3-0.2-0.3-0.4-0.4c-0.1,0-0.2-0.1-0.3-0.1C16.8,39.1,16.9,39.5,17.2,39.5z
			 M10.4,39.5c-0.2-0.4-0.4-0.5-0.7-0.4c-0.3,0.1-0.4,0.4-0.4,0.7c0,0.3,0.3,0.5,0.6,0.4c0.3,0,0.5-0.1,0.5-0.5
			c-0.2,0.1-0.3,0.3-0.5,0.3c-0.3,0.1-0.5-0.3-0.3-0.6C9.9,39,10.1,39.5,10.4,39.5z M1.3,39.8c-0.1,0-0.1,0.1-0.2,0.1
			C1,40.1,0.8,40.2,0.6,40c-0.2-0.1-0.2-0.5-0.1-0.6c0.2-0.2,0.3-0.2,0.5,0c0.1,0.1,0.2,0.1,0.3,0.2c-0.2-0.4-0.4-0.5-0.7-0.4
			c-0.3,0.1-0.4,0.3-0.4,0.6c0,0.3,0.2,0.5,0.5,0.5C1.1,40.3,1.3,40.2,1.3,39.8z M6.1,39.5C6.1,39.5,6.1,39.5,6.1,39.5
			c-0.2,0-0.4,0-0.5,0.1c-0.1,0.1-0.1,0.4,0,0.5c0.1,0.1,0.3,0.1,0.5,0.2c0.1,0,0.2,0,0.3,0c0-0.4,0-0.7,0-1.1c0,0-0.1,0-0.1,0
			C6.2,39.2,6.2,39.3,6.1,39.5z M7.3,39.5c0-0.1-0.1-0.2-0.1-0.3c0,0-0.1,0-0.1,0c0,0.4,0,0.7,0,1.1c0.2,0,0.4,0.1,0.6,0
			c0.1-0.1,0.2-0.3,0.2-0.5C7.9,39.5,7.6,39.4,7.3,39.5z M9.1,41.6c0.6-0.1,0.7-0.2,0.7-0.4c0-0.3-0.4-0.4-0.9-0.2
			c0,0.4,0,0.7,0,1.1c0,0,0.1,0,0.1,0C9,41.9,9,41.7,9.1,41.6z M15.7,39.9c0-0.3-0.1-0.5-0.4-0.5c-0.2,0-0.4,0.1-0.4,0.3
			c0,0.2,0,0.4,0.3,0.5c0.2,0.1,0.4,0,0.5-0.3c-0.2,0-0.5,0.3-0.6-0.1C15.3,39.9,15.5,39.9,15.7,39.9z M11.9,40
			c-0.5,0.1-0.5,0.1-0.6-0.2c0.2,0,0.4,0,0.6,0c0-0.3-0.1-0.4-0.4-0.5c-0.2,0-0.4,0.1-0.4,0.3c0,0.2,0,0.4,0.2,0.5
			C11.5,40.3,11.7,40.3,11.9,40z M5.4,40c-0.1,0-0.2,0.1-0.3,0.1C5,40.1,4.9,40,4.8,40c0,0,0-0.1,0-0.1c0.2,0,0.4,0,0.6,0
			c0-0.3-0.1-0.4-0.3-0.4c-0.2,0-0.4,0.1-0.4,0.3c-0.1,0.2-0.1,0.4,0.2,0.5C5,40.3,5.2,40.3,5.4,40z M2.2,39.9c0.2,0,0.4,0,0.6,0
			c0-0.3-0.1-0.4-0.4-0.5c-0.2,0-0.4,0.1-0.4,0.4c0,0.2,0,0.4,0.3,0.5c0.2,0.1,0.4,0,0.5-0.3C2.6,40,2.4,40.3,2.2,39.9z M12.6,41.6
			c0-0.3-0.1-0.4-0.4-0.5c-0.2,0-0.4,0.1-0.4,0.3c0,0.2,0,0.5,0.3,0.5c0.2,0.1,0.4,0,0.5-0.3c-0.2,0-0.4,0.3-0.6-0.1
			C12.2,41.6,12.4,41.6,12.6,41.6z M8.4,39.9c-0.3-0.5-0.3-0.5-0.4-0.5c0,0.4,0.5,0.7,0.1,1.1c0.1,0,0.3,0,0.3-0.1
			c0.2-0.3,0.3-0.7,0.4-1c0,0-0.1,0-0.1-0.1C8.6,39.6,8.5,39.8,8.4,39.9z M5.5,41.6c0,0.3,0.2,0.4,0.4,0.4c0.3,0,0.4-0.2,0.4-0.4
			c0-0.3-0.2-0.4-0.4-0.4C5.6,41.1,5.5,41.3,5.5,41.6z M2.3,41.6c0-0.3-0.2-0.4-0.4-0.4c-0.3,0-0.4,0.2-0.4,0.4
			c0,0.3,0.2,0.4,0.4,0.4C2.1,42,2.3,41.8,2.3,41.6z M10.4,41.6c0,0.3,0.2,0.4,0.4,0.4c0.3,0,0.4-0.2,0.4-0.4c0-0.3-0.2-0.4-0.4-0.4
			C10.6,41.1,10.4,41.3,10.4,41.6z M7.4,42C7.4,42,7.4,42,7.4,42c0.1,0,0.2-0.1,0.2-0.1c0-0.1,0-0.2,0-0.4c0-0.1,0.1-0.1,0.2-0.2
			c0.1,0.1,0.1,0.1,0.2,0.2c0,0.1,0,0.2,0,0.4C7.9,41.9,8,42,8,42c0,0,0.1,0,0.1,0c0-0.2,0-0.5-0.1-0.7c-0.1-0.1-0.4-0.1-0.6-0.2
			C7.4,41.4,7.4,41.7,7.4,42z M6.5,41.1C6.3,41.9,6.4,42,7.2,42c0-0.3,0-0.5,0-0.8C7,41.2,7,41.2,7,41.3c0,0.1,0,0.2,0,0.3
			c0,0.1-0.1,0.1-0.2,0.2c0-0.1-0.1-0.1-0.1-0.2c0-0.1,0-0.2,0-0.3C6.6,41.2,6.6,41.2,6.5,41.1z M13.5,41.6
			c-0.1,0.1-0.2,0.1-0.3,0.2c-0.2,0.1-0.4-0.3-0.2-0.4c0.1-0.1,0.3,0,0.5,0c0-0.2-0.2-0.3-0.4-0.2c-0.2,0-0.4,0.2-0.3,0.4
			c0,0.2,0.1,0.4,0.3,0.4C13.2,42,13.4,42,13.5,41.6z M14,39.4c0.1,0.2,0.2,0.5,0.3,0.7c0.1,0.2,0.2,0.2,0.3,0
			c0.1-0.2,0.2-0.5,0.3-0.7c0,0-0.1,0-0.1-0.1c-0.1,0.2-0.2,0.4-0.3,0.6C14.2,39.4,14.2,39.4,14,39.4z M14.2,41.9
			c-0.3-0.3-0.3-0.6-0.1-0.7c-0.1-0.1-0.2-0.2-0.3-0.3c-0.1,0.1-0.2,0.3-0.2,0.4c0,0.1,0.1,0.3,0.1,0.4C13.8,42,13.9,42,14.2,41.9z
			 M13.2,39.1c-0.1,0.1-0.2,0.3-0.2,0.4c0,0.1,0.1,0.3,0.1,0.4c0,0.3,0.1,0.3,0.4,0.2c-0.3-0.2-0.3-0.5,0-0.7
			C13.4,39.4,13.3,39.3,13.2,39.1z M17.9,39.5c-0.1-0.1-0.2-0.2-0.3-0.3c-0.1,0.1-0.2,0.2-0.2,0.4c0,0.2,0.1,0.3,0.1,0.5
			c0,0.3,0.1,0.3,0.4,0.2C17.6,40,17.6,39.7,17.9,39.5z M4.2,39.1C4.1,39.3,4,39.4,4,39.5c0,0.2,0.1,0.3,0.1,0.5
			c0,0.3,0.1,0.3,0.4,0.2c-0.3-0.2-0.3-0.5,0-0.7C4.3,39.4,4.3,39.3,4.2,39.1z M0.5,42C0.5,42,0.5,42,0.5,42
			c0.1-0.4,0.2-0.7,0.3-1.1c-0.3-0.1-0.3,0.2-0.4,0.3C0.4,41.5,0.4,41.7,0.5,42z M11.4,42.4c0.1-0.1,0.2-0.2,0.2-0.3
			c0.1-0.4,0-0.9-0.2-0.9C11.5,41.5,11.4,41.9,11.4,42.4z M10.5,41.2C10.4,41.2,10.4,41.2,10.5,41.2c-0.2-0.1-0.4-0.1-0.5-0.1
			c0,0.3,0,0.5,0,0.8c0,0,0.1,0,0.1,0C10.2,41.8,9.9,41.3,10.5,41.2z M0.9,41.2c0,0.3,0,0.5,0,0.9c0.3-0.1,0.1-0.3,0.2-0.5
			c0.1-0.1,0.2-0.3,0.3-0.4C1.2,41.2,1.1,41.2,0.9,41.2z M10.6,40.2C10.6,40.3,10.6,40.3,10.6,40.2c0.3-0.2,0-0.7,0.5-0.8
			c-0.2,0-0.3,0-0.5,0C10.6,39.7,10.6,40,10.6,40.2z M19.2,40.3c0-0.4,0-0.8,0-1.2C19,39.3,19,40.1,19.2,40.3z M19.5,39.2
			c0,0.4,0,0.7,0,1.1C19.7,40.1,19.7,39.3,19.5,39.2z M2,39.4c-0.1,0-0.3,0-0.4,0c0,0.3,0,0.5,0,0.8c0,0,0.1,0,0.1,0
			c0-0.1,0-0.3,0.1-0.4C1.7,39.7,1.9,39.6,2,39.4z M13.7,40.3c0.2-0.2,0.2-0.7,0-0.9C13.7,39.7,13.7,40,13.7,40.3z"/>
		<path class="st2" d="M20.1,32.9c-5.1,0-10.2,0-15.3,0c-2,0-3.4-1.3-3.9-2.7c-0.1-0.4-0.2-0.9-0.2-1.3c0-6.1,0-12.1,0-18.2
			c0-2.3,1.7-4,4-4c1.4,0,2.8,0,4.3,0c0.3,0,0.5-0.1,0.5-0.4C9.8,5.6,10,4.8,10.3,4c0.1-0.2,0.2-0.3,0.4-0.3c3.1,0,6.2,0,9.3,0
			c0.2,0,0.3,0.1,0.4,0.3c0.3,0.8,0.6,1.5,0.8,2.3c0.1,0.2,0.2,0.3,0.4,0.3c2,0,4.1,0,6.1,0c0.3,0,0.4-0.1,0.4-0.4
			c0-0.2,0-0.3,0-0.5c0.1-0.4,0.4-0.7,0.9-0.7c1.2,0,2.4,0,3.5,0c0.5,0,0.9,0.4,0.9,0.9c0,0.7,0,0.7,0.7,0.7c0.8,0,1.5,0,2.3,0.1
			c1.8,0.4,3,2,3,3.9c0,6.1,0,12.1,0,18.2c0,2.2-1.6,3.9-3.8,4c-1,0-2,0-3,0C28.5,32.9,24.3,32.9,20.1,32.9z M15.9,28.7
			c3.5,0,6.9,0,10.4,0c0.1,0,0.3,0,0.4,0c0.4-0.1,0.9-0.5,0.8-0.9c0-0.2-0.1-0.3-0.1-0.5c0-4.9,0-9.8,0-14.7c0-0.8-0.4-1.2-1.2-1.2
			c-6.9,0-13.8,0-20.7,0c-0.9,0-1.2,0.4-1.2,1.2c0,4.9,0,9.9,0,14.8c0,0.8,0.4,1.2,1.2,1.2C9,28.7,12.4,28.7,15.9,28.7z M33.5,19.1
			c-2.2,0-4,1.8-4,4c0,2.2,1.8,4.1,4.1,4.1c2.2,0,4-1.8,4-4C37.5,21,35.7,19.1,33.5,19.1z M33.6,10.2c-0.7,0-1.5,0-2.2,0
			c-0.5,0-0.9,0.3-1.1,0.8c-0.3,0.8,0.3,1.7,1.2,1.7c1.4,0,2.8,0,4.1,0c0.7,0,1.3-0.5,1.3-1.2c0-0.7-0.5-1.2-1.3-1.2
			C35,10.2,34.3,10.2,33.6,10.2z"/>
		<path class="st2" d="M4.5,41.3c0,0.6,0,0.6-0.2,0.7c0-0.4,0-0.7,0-1.1c0.4,0.1,0.4,0.5,0.7,0.7C5.1,41.3,5,41,5.1,40.8
			c0,0,0.1,0,0.1,0c0,0.4,0,0.7,0,1.1C4.8,41.9,4.8,41.5,4.5,41.3z"/>
		<path class="st2" d="M2.9,42c0-0.2,0-0.3,0-0.5c0-0.1-0.1-0.1-0.2-0.2c-0.1,0.1-0.1,0.1-0.2,0.2c0,0.1,0,0.2,0,0.4
			c0,0.1-0.1,0.1-0.2,0.1c0-0.3,0-0.5,0-0.8c0.3,0,0.6,0,0.9,0c0.1,0,0.1,0,0.2,0c0.2,0.1,0.2,0.7,0,0.9c0-0.2,0-0.3,0-0.5
			c0-0.1-0.1-0.2-0.2-0.2c-0.1,0.1-0.1,0.2-0.2,0.2c0,0.1,0,0.2,0,0.3C3.1,41.9,3.1,42,2.9,42C3,42,3,42,2.9,42z"/>
		<path class="st2" d="M18.6,39.6c-0.2,0-0.3,0-0.5,0.1c0.1-0.2,0.2-0.3,0.5-0.2c0.1,0,0.2,0.2,0.3,0.3c0.1,0.2,0,0.3,0,0.5
			c-0.2,0-0.3,0-0.5,0c-0.1,0-0.2-0.1-0.3-0.2c0.1-0.1,0.2-0.2,0.3-0.3c0.1-0.1,0.2-0.1,0.3-0.1C18.6,39.7,18.6,39.6,18.6,39.6z"/>
		<path class="st2" d="M12,39.6c0.1-0.3,0.3-0.2,0.5-0.2c0.2,0,0.2,0.2,0.2,0.4c0,0.1,0,0.3,0,0.4c-0.2,0-0.3,0-0.5,0
			c-0.1,0-0.2-0.1-0.3-0.2c0.1-0.1,0.2-0.2,0.3-0.3c0.1-0.1,0.2-0.1,0.3-0.1C12.4,39.4,12.2,39.8,12,39.6z"/>
		<path class="st2" d="M3,39.7c0.1-0.3,0.4-0.3,0.5-0.2c0.1,0,0.2,0.2,0.2,0.4c0,0.1,0,0.3,0.1,0.4c-0.2,0-0.4,0-0.5,0
			c-0.1,0-0.2-0.1-0.3-0.2C3,40,3.1,39.9,3.2,39.8c0.1-0.1,0.2-0.1,0.3-0.1c0,0,0-0.1,0-0.1C3.3,39.6,3.2,39.6,3,39.7z"/>
		<path class="st2" d="M17.2,39.5c-0.2,0-0.4-0.4-0.6,0c0.1,0.1,0.2,0.1,0.3,0.1c0.2,0.1,0.4,0.1,0.4,0.4c0,0.2-0.2,0.3-0.5,0.3
			c-0.3,0-0.4-0.1-0.4-0.4c0.1,0.1,0.2,0.2,0.3,0.2c0.1,0,0.2,0,0.4,0c0,0,0-0.1,0-0.1c-0.1,0-0.2-0.1-0.3-0.1
			c-0.1-0.1-0.2-0.2-0.3-0.3c0.1-0.1,0.2-0.2,0.3-0.3C16.9,39.1,17.1,39.2,17.2,39.5z"/>
		<path class="st2" d="M10.4,39.5c-0.3-0.1-0.6-0.5-0.8-0.1c-0.2,0.3,0,0.7,0.3,0.6c0.2,0,0.3-0.2,0.5-0.3c0,0.4-0.2,0.5-0.5,0.5
			c-0.3,0-0.5-0.2-0.6-0.4c0-0.3,0.1-0.6,0.4-0.7C10,39.1,10.3,39.2,10.4,39.5z"/>
		<path class="st2" d="M1.3,39.8c0,0.4-0.2,0.5-0.5,0.5c-0.3,0-0.5-0.2-0.5-0.5c0-0.3,0.1-0.5,0.4-0.6c0.3-0.1,0.5,0,0.7,0.4
			c-0.2-0.1-0.2-0.1-0.3-0.2c-0.2-0.1-0.3-0.1-0.5,0c-0.2,0.2-0.1,0.5,0.1,0.6c0.2,0.1,0.3,0.1,0.5-0.1C1.2,39.9,1.2,39.8,1.3,39.8z
			"/>
		<path class="st2" d="M6.1,39.5c0-0.1,0.1-0.2,0.1-0.3c0,0,0.1,0,0.1,0c0,0.4,0,0.7,0,1.1c-0.1,0-0.2,0-0.3,0
			c-0.2,0-0.4-0.1-0.5-0.2c-0.1-0.1-0.1-0.4,0-0.5C5.7,39.5,5.9,39.5,6.1,39.5C6.1,39.5,6.1,39.5,6.1,39.5z M6,39.5c0,0-0.1,0-0.1,0
			c-0.1,0.1-0.1,0.2-0.1,0.3c0,0.1,0.1,0.2,0.2,0.2C6,40,6.1,39.9,6.2,39.8C6.2,39.7,6.1,39.6,6,39.5z"/>
		<path class="st2" d="M7.3,39.5c0.4-0.1,0.6,0,0.6,0.3c0,0.2-0.1,0.4-0.2,0.5c-0.1,0.1-0.4,0-0.6,0c0-0.4,0-0.7,0-1.1
			c0,0,0.1,0,0.1,0C7.2,39.2,7.2,39.3,7.3,39.5z M7.8,39.9c-0.1-0.1-0.2-0.2-0.3-0.3c-0.1,0.1-0.2,0.2-0.2,0.3
			c0,0.1,0.1,0.2,0.2,0.3C7.5,40.1,7.6,40,7.8,39.9z"/>
		<path class="st2" d="M9.1,41.6C9,41.7,9,41.9,9,42c0,0-0.1,0-0.1,0c0-0.4,0-0.7,0-1.1c0.5-0.1,0.8,0,0.9,0.2
			C9.8,41.4,9.7,41.5,9.1,41.6z M9,41.4c0.2-0.1,0.3-0.1,0.5-0.2c0,0,0-0.2,0-0.2C9.4,41,9.2,41,9,41C9,41.2,9,41.2,9,41.4z"/>
		<path class="st2" d="M15.7,39.9c-0.2,0-0.4,0-0.6,0c0.1,0.4,0.4,0.1,0.6,0.1c-0.1,0.3-0.3,0.3-0.5,0.3c-0.2-0.1-0.3-0.3-0.3-0.5
			c0-0.2,0.2-0.4,0.4-0.3C15.6,39.4,15.7,39.6,15.7,39.9z"/>
		<path class="st2" d="M11.9,40c-0.1,0.3-0.3,0.3-0.5,0.2c-0.2-0.1-0.3-0.3-0.2-0.5c0-0.2,0.2-0.4,0.4-0.3c0.3,0,0.4,0.2,0.4,0.5
			c-0.2,0-0.4,0-0.6,0C11.4,40.1,11.4,40.1,11.9,40z"/>
		<path class="st2" d="M5.4,40c-0.1,0.3-0.3,0.3-0.6,0.2c-0.2-0.1-0.3-0.3-0.2-0.5c0.1-0.1,0.3-0.3,0.4-0.3c0.2,0,0.4,0.2,0.3,0.4
			c-0.2,0-0.4,0-0.6,0c0,0,0,0.1,0,0.1c0.1,0,0.2,0.1,0.3,0.1C5.2,40.1,5.3,40,5.4,40z"/>
		<path class="st2" d="M2.2,39.9C2.4,40.3,2.6,40,2.8,40c-0.1,0.2-0.2,0.3-0.5,0.3C2.1,40.2,2,40,2,39.8c0-0.2,0.2-0.4,0.4-0.4
			c0.3,0,0.4,0.2,0.4,0.5C2.6,39.9,2.4,39.9,2.2,39.9z"/>
		<path class="st2" d="M12.6,41.6c-0.2,0-0.4,0-0.6,0c0.1,0.4,0.4,0.1,0.6,0.1C12.5,42,12.3,42,12.1,42c-0.3-0.1-0.3-0.3-0.3-0.5
			c0-0.2,0.2-0.3,0.4-0.3C12.5,41.2,12.6,41.3,12.6,41.6z"/>
		<path class="st2" d="M8.4,39.9c0.1-0.2,0.2-0.4,0.3-0.6c0,0,0.1,0,0.1,0.1c-0.1,0.3-0.2,0.7-0.4,1c0,0.1-0.2,0.1-0.3,0.1
			C8.5,40.1,8,39.8,8,39.4C8.1,39.4,8.1,39.4,8.4,39.9z"/>
		<path class="st2" d="M5.5,41.6c0-0.3,0.2-0.4,0.4-0.4c0.3,0,0.4,0.2,0.4,0.4c0,0.3-0.2,0.4-0.4,0.4C5.6,42,5.5,41.8,5.5,41.6z
			 M5.9,41.1c-0.1,0.2-0.2,0.3-0.2,0.4c0,0.1,0.2,0.2,0.2,0.3c0.1-0.1,0.2-0.2,0.2-0.3C6.1,41.4,6,41.3,5.9,41.1z"/>
		<path class="st2" d="M2.3,41.6c0,0.3-0.2,0.4-0.4,0.4c-0.3,0-0.4-0.2-0.4-0.4c0-0.3,0.2-0.4,0.4-0.4C2.1,41.1,2.3,41.3,2.3,41.6z
			 M1.8,41.1c-0.1,0.2-0.2,0.3-0.2,0.4c0,0.1,0.2,0.2,0.2,0.3c0.1-0.1,0.2-0.2,0.2-0.3C2.1,41.5,2,41.3,1.8,41.1z"/>
		<path class="st2" d="M10.4,41.6c0-0.3,0.2-0.4,0.4-0.4c0.3,0,0.4,0.2,0.4,0.4c0,0.3-0.2,0.4-0.4,0.4C10.6,42,10.4,41.8,10.4,41.6z
			 M10.8,41.1c-0.1,0.2-0.2,0.3-0.2,0.4c0,0.1,0.2,0.2,0.2,0.3c0.1-0.1,0.2-0.2,0.2-0.3C11.1,41.4,11,41.3,10.8,41.1z"/>
		<path class="st2" d="M7.4,42c0-0.3,0-0.6,0-0.9c0.2,0.1,0.5,0,0.6,0.2c0.1,0.2,0.1,0.5,0.1,0.7c0,0-0.1,0-0.1,0
			c0,0-0.1-0.1-0.1-0.1c0-0.1,0-0.2,0-0.4c0-0.1-0.1-0.1-0.2-0.2c-0.1,0.1-0.2,0.1-0.2,0.2c0,0.1,0,0.2,0,0.4
			C7.6,41.9,7.5,42,7.4,42C7.4,42,7.4,42,7.4,42z"/>
		<path class="st2" d="M6.5,41.1c0.1,0.1,0.1,0.2,0.1,0.2c0,0.1,0,0.2,0,0.3c0,0.1,0.1,0.1,0.1,0.2c0.1-0.1,0.2-0.1,0.2-0.2
			c0-0.1,0-0.2,0-0.3c0-0.1,0.1-0.1,0.2-0.1c0,0.3,0,0.5,0,0.8C6.4,42,6.3,41.9,6.5,41.1z"/>
		<path class="st2" d="M13.5,41.6c0,0.3-0.2,0.4-0.4,0.3c-0.1-0.1-0.2-0.3-0.3-0.4c0-0.2,0.1-0.4,0.3-0.4c0.2,0,0.4,0,0.4,0.2
			c-0.2,0-0.4-0.1-0.5,0c-0.2,0.1,0,0.5,0.2,0.4C13.3,41.8,13.4,41.7,13.5,41.6z"/>
		<path class="st2" d="M14,39.4c0.2,0,0.2,0,0.4,0.5c0.1-0.2,0.2-0.4,0.3-0.6c0,0,0.1,0,0.1,0.1c-0.1,0.2-0.1,0.5-0.3,0.7
			c-0.1,0.2-0.2,0.1-0.3,0C14.2,39.9,14.1,39.7,14,39.4z"/>
		<path class="st2" d="M14.2,41.9c-0.3,0.1-0.4,0-0.4-0.3c0-0.1-0.1-0.3-0.1-0.4c0-0.1,0.1-0.2,0.2-0.4c0.1,0.1,0.2,0.2,0.3,0.3
			C13.9,41.4,13.9,41.7,14.2,41.9z"/>
		<path class="st2" d="M13.2,39.1c0.1,0.1,0.2,0.2,0.3,0.4c-0.2,0.2-0.2,0.5,0,0.7c-0.3,0.1-0.4,0.1-0.4-0.2c0-0.1-0.1-0.3-0.1-0.4
			C13,39.4,13.1,39.3,13.2,39.1z"/>
		<path class="st2" d="M17.9,39.5c-0.3,0.2-0.3,0.5,0,0.7c-0.3,0.1-0.4,0.1-0.4-0.2c0-0.2-0.1-0.3-0.1-0.5c0-0.1,0.1-0.2,0.2-0.4
			C17.7,39.3,17.8,39.4,17.9,39.5z"/>
		<path class="st2" d="M4.2,39.1c0.1,0.1,0.2,0.2,0.3,0.3c-0.2,0.2-0.2,0.5,0,0.7c-0.3,0.1-0.4,0.1-0.4-0.2c0-0.2-0.1-0.3-0.1-0.5
			C4,39.4,4.1,39.3,4.2,39.1z"/>
		<path class="st2" d="M0.5,42c0-0.3-0.1-0.5-0.1-0.8c0.1-0.1,0.1-0.4,0.4-0.3C0.7,41.2,0.6,41.6,0.5,42C0.5,42,0.5,42,0.5,42z"/>
		<path class="st2" d="M11.4,42.4c0-0.5,0.1-0.8,0.1-1.2c0.2,0,0.2,0.5,0.2,0.9C11.6,42.2,11.5,42.3,11.4,42.4z"/>
		<path class="st2" d="M10.5,41.2c-0.6,0-0.3,0.5-0.4,0.8c0,0-0.1,0-0.1,0c0-0.3,0-0.5,0-0.8C10.1,41.2,10.2,41.2,10.5,41.2
			C10.4,41.2,10.4,41.2,10.5,41.2z"/>
		<path class="st2" d="M0.9,41.2c0.2,0,0.3,0,0.5,0c-0.1,0.1-0.2,0.3-0.3,0.4C1,41.7,1.2,41.9,0.9,42C0.9,41.7,0.9,41.4,0.9,41.2z"
			/>
		<path class="st2" d="M10.6,40.2c0-0.3,0-0.5,0-0.8c0.2,0,0.3,0,0.5,0C10.5,39.5,10.9,40.1,10.6,40.2
			C10.6,40.3,10.6,40.3,10.6,40.2z"/>
		<path class="st2" d="M19.2,40.3c-0.2-0.2-0.2-1,0-1.2C19.2,39.5,19.2,39.9,19.2,40.3z"/>
		<path class="st2" d="M19.5,39.2c0.2,0.1,0.2,0.9,0,1.1C19.5,39.9,19.5,39.5,19.5,39.2z"/>
		<path class="st2" d="M2,39.4c-0.1,0.1-0.2,0.3-0.3,0.4c-0.1,0.1,0,0.3-0.1,0.4c0,0-0.1,0-0.1,0c0-0.3,0-0.5,0-0.8
			C1.7,39.4,1.8,39.4,2,39.4z"/>
		<path class="st2" d="M13.7,40.3c0-0.3,0-0.6,0-0.9C14,39.5,14,40.1,13.7,40.3z"/>
		<path class="st1" d="M15.9,28.7c-3.5,0-6.9,0-10.4,0c-0.8,0-1.2-0.4-1.2-1.2c0-4.9,0-9.9,0-14.8c0-0.9,0.4-1.2,1.2-1.2
			c6.9,0,13.8,0,20.7,0c0.8,0,1.2,0.4,1.2,1.2c0,4.9,0,9.8,0,14.7c0,0.2,0,0.3,0.1,0.5c0.1,0.4-0.4,0.8-0.8,0.9c-0.1,0-0.3,0-0.4,0
			C22.8,28.7,19.3,28.7,15.9,28.7z"/>
		<path class="st1" d="M33.5,19.1c2.2,0,4.1,1.8,4.1,4c0,2.2-1.8,4-4,4c-2.2,0-4.1-1.8-4.1-4.1C29.4,20.9,31.2,19.1,33.5,19.1z"/>
		<path class="st1" d="M33.6,10.2c0.7,0,1.4,0,2.1,0c0.8,0,1.3,0.5,1.3,1.2c0,0.7-0.6,1.2-1.3,1.2c-1.4,0-2.8,0-4.1,0
			c-0.9,0-1.5-0.8-1.2-1.7c0.2-0.5,0.6-0.8,1.1-0.8C32.1,10.2,32.9,10.2,33.6,10.2z"/>
		<path class="st1" d="M6,39.5c0.1,0.1,0.2,0.2,0.2,0.3c0,0.1-0.1,0.2-0.2,0.3C5.9,40,5.7,40,5.7,39.9c0-0.1,0.1-0.2,0.1-0.3
			C5.9,39.5,5.9,39.5,6,39.5z"/>
		<path class="st1" d="M7.8,39.9c-0.1,0.1-0.3,0.2-0.3,0.2c-0.1,0-0.2-0.2-0.2-0.3c0-0.1,0.1-0.2,0.2-0.3
			C7.6,39.6,7.7,39.7,7.8,39.9z"/>
		<path class="st1" d="M9,41.4c0-0.2,0-0.3,0-0.4c0.2,0,0.3,0.1,0.5,0.1c0,0,0,0.2,0,0.2C9.4,41.3,9.2,41.4,9,41.4z"/>
		<path class="st1" d="M5.9,41.1c0.1,0.2,0.2,0.3,0.2,0.4c0,0.1-0.1,0.2-0.2,0.3c-0.1-0.1-0.2-0.2-0.2-0.3
			C5.6,41.5,5.8,41.4,5.9,41.1z"/>
		<path class="st1" d="M1.8,41.1c0.1,0.2,0.2,0.3,0.2,0.4c0,0.1-0.1,0.2-0.2,0.3c-0.1-0.1-0.2-0.2-0.2-0.3
			C1.6,41.5,1.7,41.3,1.8,41.1z"/>
		<path class="st1" d="M10.8,41.1c0.1,0.2,0.2,0.3,0.2,0.4c0,0.1-0.1,0.2-0.2,0.3c-0.1-0.1-0.2-0.2-0.2-0.3
			C10.6,41.5,10.7,41.4,10.8,41.1z"/>
	</g>
</g>
<rect x="5.1" y="13.4" class="st3" width="22" height="14.2"/>
<text transform="matrix(1 0 0 1 5.0538 26.9646)" class="st2 st4 st5">Mi</text>
</svg>
